<?xml version="1.0" standalone="no"?>
<!DOCTYPE svg PUBLIC "-//W3C//DTD SVG 20010904//EN"
 "http://www.w3.org/TR/2001/REC-SVG-20010904/DTD/svg10.dtd">
<svg version="1.0" xmlns="http://www.w3.org/2000/svg"
 width="1080.000000pt" height="803.000000pt" viewBox="0 0 1080.000000 803.000000"
 preserveAspectRatio="xMidYMid meet">

<g transform="translate(0.000000,803.000000) scale(0.100000,-0.100000)"
fill="#000000" stroke="none">
<path d="M0 4015 l0 -4015 5400 0 5400 0 0 4015 0 4015 -5400 0 -5400 0 0
-4015z m3308 258 c1 -585 -1 -1063 -5 -1063 -4 0 -72 64 -150 142 l-143 143
-143 -143 c-78 -78 -146 -142 -150 -142 -9 0 -9 2114 0 2123 4 4 137 6 297 5
l291 -3 3 -1062z m4042 842 l0 -225 370 0 370 0 0 -295 0 -295 -367 -2 -368
-3 -3 -225 c-2 -132 2 -252 8 -290 18 -103 72 -204 149 -280 119 -116 219
-150 438 -150 l143 0 0 -300 0 -300 -109 0 c-140 0 -291 16 -385 40 -251 64
-496 237 -637 450 -89 134 -125 213 -171 375 -22 79 -22 91 -28 780 l-5 700
120 123 121 122 177 0 177 0 0 -225z m-810 148 l0 -68 -145 -145 -145 -146
-145 145 -145 145 0 68 0 68 290 0 290 0 0 -67z m-1651 -374 c383 -98 678
-379 799 -759 49 -152 52 -205 52 -816 l0 -564 -295 0 -295 0 0 553 c0 512 -1
559 -19 628 -42 164 -163 301 -316 358 -298 112 -607 -57 -689 -375 -14 -53
-16 -144 -16 -613 l0 -551 -177 0 -176 0 -119 117 -118 117 0 953 0 953 295 0
295 0 0 -45 c0 -25 4 -45 9 -45 5 0 37 13 72 30 65 29 193 66 284 81 91 14
321 3 414 -22z m1216 -149 c76 -77 141 -140 145 -140 3 0 68 63 145 140 77 77
143 140 147 140 5 0 7 -478 6 -1062 l-3 -1063 -295 0 -295 0 -3 1063 c-1 584
1 1062 6 1062 4 0 70 -63 147 -140z m-2945 -1704 l140 -139 0 -68 0 -69 -290
0 -290 0 0 68 0 69 142 142 c78 78 145 140 150 139 4 -2 71 -65 148 -142z"/>
</g>
</svg>
