<?xml version="1.0" standalone="no"?>
<!DOCTYPE svg PUBLIC "-//W3C//DTD SVG 20010904//EN"
 "http://www.w3.org/TR/2001/REC-SVG-20010904/DTD/svg10.dtd">
<svg version="1.0" xmlns="http://www.w3.org/2000/svg"
 width="837.000000pt" height="917.000000pt" viewBox="0 0 837.000000 917.000000"
 preserveAspectRatio="xMidYMid meet">

<g transform="translate(0.000000,917.000000) scale(0.100000,-0.100000)"
fill="#000000" stroke="none">
<path d="M3469 7453 c-6 -16 -40 -140 -74 -278 -94 -373 -125 -491 -151 -584
-13 -46 -24 -89 -24 -97 0 -10 16 -14 63 -14 34 0 67 4 74 8 6 4 18 61 27 127
9 66 18 125 21 132 4 12 82 0 97 -15 4 -4 15 -59 23 -122 9 -63 22 -118 28
-123 11 -7 157 1 166 9 2 2 -17 110 -42 241 -25 131 -58 306 -72 388 -67 386
-58 355 -96 355 -23 0 -32 -6 -40 -27z m16 -532 l7 -81 -36 0 c-20 0 -36 2
-36 4 0 2 9 48 20 101 11 53 20 100 21 104 3 21 18 -59 24 -128z"/>
<path d="M3874 7473 c-125 -3 -175 -7 -183 -16 -5 -7 -12 -33 -13 -58 l-3 -44
85 0 85 0 -3 -335 c-2 -184 -8 -373 -12 -420 -11 -116 -7 -122 83 -118 l72 3
-1 70 c-1 39 -7 214 -14 390 -7 176 -14 340 -14 365 l-1 45 75 1 c102 1 100 0
100 35 0 53 -28 90 -65 87 -11 -2 -97 -4 -191 -5z"/>
<path d="M2766 7278 c-3 -106 -7 -287 -8 -403 l-3 -210 183 -3 182 -2 0 63 c0
35 -2 66 -6 69 -3 3 -26 -1 -51 -8 -25 -8 -72 -14 -104 -14 l-58 0 -5 43 c-13
111 -14 145 -3 156 6 6 37 11 68 11 32 0 60 3 62 8 3 4 2 25 -2 47 l-7 40 -64
0 -65 0 -3 140 c-1 76 -1 144 2 150 2 7 37 8 112 3 117 -9 124 -7 124 44 0 59
2 58 -180 58 l-168 0 -6 -192z"/>
<path d="M4830 7075 l0 -185 490 0 490 0 0 185 0 185 -490 0 -490 0 0 -185z"/>
<path d="M4630 6635 l0 -185 690 0 690 0 0 185 0 185 -690 0 -690 0 0 -185z"/>
<path d="M2980 6599 c-52 -5 -124 -12 -160 -16 l-65 -8 0 -40 0 -40 70 -3 c39
-2 121 -1 183 3 l112 7 0 38 c0 50 -8 70 -29 69 -9 -1 -59 -6 -111 -10z"/>
<path d="M5191 5385 l-1 -975 130 0 130 0 0 975 0 975 -129 0 -129 0 -1 -975z"/>
<path d="M2845 6049 c-67 -19 -125 -111 -125 -199 0 -60 37 -157 132 -348 107
-214 124 -271 98 -337 l-12 -30 -23 28 c-14 15 -30 45 -36 67 -7 22 -17 40
-23 40 -19 0 -86 -50 -86 -63 0 -25 60 -107 92 -127 83 -50 175 -4 218 109 18
49 21 76 19 144 -4 94 -14 113 -150 307 -116 165 -146 247 -115 308 22 43 53
42 89 -3 15 -19 32 -35 37 -35 4 0 19 16 31 36 l22 37 -36 33 c-20 19 -45 34
-56 34 -11 0 -25 2 -33 4 -7 2 -26 0 -43 -5z"/>
<path d="M3197 6044 c-4 -4 -7 -109 -7 -233 0 -124 -5 -340 -11 -480 -10 -213
-9 -255 2 -262 8 -5 94 -9 192 -9 l177 0 0 58 c0 32 -4 62 -10 68 -6 6 -41 5
-100 -5 -58 -9 -94 -11 -100 -5 -15 15 -30 227 -31 449 -1 110 -4 250 -8 310
l-6 110 -45 3 c-25 2 -49 0 -53 -4z"/>
<path d="M3676 6042 c-3 -5 -10 -173 -16 -373 -6 -200 -13 -372 -16 -381 -3
-10 0 -26 6 -38 10 -19 20 -20 190 -20 l180 0 0 71 0 71 -27 -6 c-108 -23
-175 -28 -188 -15 -16 18 -29 185 -14 194 6 4 37 9 70 12 59 6 59 6 59 37 0
18 -6 40 -13 50 -12 16 -20 17 -58 9 -24 -5 -50 -8 -57 -5 -9 3 -12 43 -12
152 l0 149 114 -6 115 -6 6 24 c3 13 2 38 -3 54 l-8 30 -161 3 c-89 1 -164 -2
-167 -6z"/>
<path d="M4146 6042 c-7 -11 -29 -781 -22 -797 4 -12 37 -15 186 -15 l180 0 0
71 0 71 -27 -6 c-108 -23 -175 -28 -188 -15 -14 14 -25 182 -13 195 4 3 34 8
67 11 l61 6 0 36 c0 58 -10 66 -69 54 -34 -7 -53 -7 -61 1 -6 6 -10 67 -10
153 l0 142 118 -2 117 -2 3 32 c2 18 -2 41 -8 53 -10 19 -20 20 -170 20 -87 0
-161 -3 -164 -8z"/>
<path d="M4619 6048 c-7 -21 -29 -970 -23 -980 3 -5 39 -8 80 -8 l76 0 -9 148
c-4 81 -8 187 -8 237 l0 89 61 24 c140 55 217 153 218 275 0 96 -57 185 -135
207 -29 8 -257 15 -260 8z m189 -84 c79 -55 63 -202 -32 -293 -20 -19 -38 -32
-42 -28 -3 3 -8 80 -11 171 l-6 166 34 0 c19 0 45 -7 57 -16z"/>
<path d="M3780 5164 c-69 -7 -126 -13 -127 -13 -2 -1 -3 -19 -3 -41 l0 -40
169 0 c93 0 176 3 185 6 16 6 22 57 10 88 -7 19 -52 19 -234 0z"/>
<path d="M4255 5165 c-66 -7 -123 -13 -127 -14 -5 -1 -8 -19 -8 -41 l0 -40
173 0 c94 0 178 4 185 9 9 5 12 24 10 52 l-3 44 -55 1 c-30 1 -109 -4 -175
-11z"/>
<path d="M2909 4612 c-120 -77 -189 -239 -189 -448 0 -230 93 -428 239 -508
133 -72 133 -71 215 248 57 223 61 249 42 269 -15 15 -230 87 -260 87 -19 0
-22 -8 -30 -76 l-6 -51 71 -7 c39 -3 76 -9 82 -13 10 -6 2 -212 -10 -260 -8
-34 -23 -28 -80 30 -63 63 -108 156 -123 252 -26 162 29 362 120 438 71 60 13
91 -71 39z"/>
<path d="M3150 4615 c0 -9 15 -46 34 -83 63 -126 127 -281 147 -359 17 -68 19
-97 14 -218 -4 -77 -13 -180 -20 -230 -8 -49 -11 -93 -6 -98 4 -4 41 -4 82 0
l74 8 5 285 5 285 68 197 c37 109 67 204 67 213 0 12 -12 15 -53 15 l-52 0
-44 -142 c-24 -79 -47 -146 -50 -150 -4 -5 -27 47 -51 115 -67 189 -57 177
-145 177 -61 0 -75 -3 -75 -15z"/>
<path d="M3718 4624 c-4 -3 -7 -129 -7 -278 0 -149 -6 -365 -12 -479 -8 -141
-8 -212 -1 -219 5 -5 35 -12 66 -14 l56 -4 0 280 c0 180 4 280 10 280 6 0 10
-7 10 -15 0 -16 63 -228 109 -370 l26 -80 39 0 39 0 76 247 c42 136 79 249 82
252 3 3 5 -128 5 -292 l-1 -297 79 -3 c44 -2 83 1 88 6 4 4 2 128 -7 278 -8
148 -18 368 -22 489 l-8 220 -60 3 c-33 1 -65 -1 -71 -5 -9 -7 -44 -121 -156
-511 -12 -40 -24 -69 -28 -65 -4 4 -44 116 -90 248 -45 132 -92 260 -104 285
-20 43 -23 45 -66 48 -25 2 -49 0 -52 -4z"/>
<path d="M4630 4135 l0 -185 690 0 690 0 0 185 0 185 -690 0 -690 0 0 -185z"/>
<path d="M4830 3690 l0 -180 490 0 490 0 0 180 0 180 -490 0 -490 0 0 -180z"/>
<path d="M4942 3201 c-13 -9 -23 -43 -117 -416 -47 -187 -97 -380 -110 -430
-14 -49 -28 -102 -31 -117 l-6 -28 70 0 c39 0 73 4 76 8 3 5 13 65 23 135 20
140 20 141 91 116 33 -11 33 -11 52 -159 7 -46 14 -88 16 -92 3 -4 41 -8 85
-8 61 0 81 3 85 15 4 8 -8 84 -25 167 -38 192 -71 372 -111 608 -17 101 -33
187 -36 191 -6 10 -51 17 -62 10z m4 -557 l7 -71 -32 -5 c-18 -3 -33 -2 -35 1
-3 5 27 185 35 211 3 12 19 -72 25 -136z"/>
<path d="M2776 3168 c-5 -30 -20 -671 -21 -868 l0 -85 71 -3 c49 -2 74 1 82
10 7 9 8 46 2 118 -17 212 -22 320 -13 320 15 0 80 -133 103 -208 16 -55 50
-217 50 -239 0 -2 7 -3 15 -3 12 0 125 104 125 116 0 2 -11 33 -25 69 -39 104
-92 197 -145 258 l-50 55 53 30 c132 75 190 226 133 347 -44 95 -88 115 -255
115 l-120 0 -5 -32z m206 -65 c49 -47 54 -107 19 -198 -14 -34 -79 -105 -97
-105 -12 0 -30 312 -18 331 10 17 65 1 96 -28z"/>
<path d="M3276 3124 c-3 -42 -6 -134 -6 -203 0 -69 -5 -213 -10 -320 -7 -143
-7 -198 1 -208 9 -11 49 -13 188 -11 l176 3 3 63 c3 71 -6 80 -60 64 -48 -15
-141 -23 -155 -14 -17 11 -29 187 -14 197 7 4 40 9 73 12 l60 6 -6 40 c-4 22
-9 44 -12 49 -3 5 -32 6 -63 2 l-58 -6 -7 141 c-4 78 -4 146 0 152 4 7 44 8
121 3 l114 -7 -3 54 -3 54 -166 3 -166 2 -7 -76z"/>
<path d="M3746 2913 c-3 -159 -10 -378 -15 -488 -5 -110 -7 -203 -4 -207 2 -5
37 -8 78 -8 87 0 83 -7 73 129 -3 53 -7 152 -9 220 l-2 125 66 27 c154 62 225
162 215 301 -5 74 -45 134 -108 166 -39 19 -60 22 -166 22 l-122 0 -6 -287z
m206 190 c55 -57 58 -126 9 -217 -22 -42 -75 -96 -94 -96 -4 0 -7 77 -7 170
l0 170 33 0 c23 0 41 -8 59 -27z"/>
<path d="M4236 3188 c-3 -7 -9 -188 -16 -402 -9 -318 -9 -391 2 -397 7 -5 91
-9 186 -9 l172 0 0 71 0 72 -32 -7 c-140 -30 -183 -29 -192 2 -8 25 -11 170
-4 177 3 3 34 9 69 13 60 7 64 9 62 32 -7 69 -8 70 -76 67 l-62 -2 -3 148 -3
148 118 -3 118 -3 3 29 c2 15 1 39 -2 52 l-6 24 -166 0 c-123 0 -166 -3 -168
-12z"/>
<path d="M5173 3193 c-23 -4 -32 -23 -36 -78 l-2 -30 88 -3 88 -3 -7 -342 c-3
-188 -10 -377 -15 -419 -12 -109 -12 -109 80 -106 l76 3 -1 75 c-1 41 -6 199
-12 350 -6 151 -12 311 -13 355 l-2 80 84 5 c78 5 84 7 87 28 2 12 -2 38 -8
57 l-12 35 -186 -1 c-103 -1 -197 -4 -209 -6z"/>
<path d="M3410 2319 c-153 -15 -150 -14 -150 -59 l0 -40 174 0 c128 0 176 3
184 13 6 7 8 31 5 55 l-6 42 -61 -1 c-33 -1 -99 -5 -146 -10z"/>
<path d="M4330 2315 c-63 -8 -116 -14 -118 -14 -2 -1 -2 -18 0 -38 l3 -38 180
0 180 0 0 50 0 50 -65 1 c-36 1 -117 -4 -180 -11z"/>
<path d="M2365 1905 l0 -365 98 0 97 0 0 365 0 365 -97 0 -98 0 0 -365z"/>
<path d="M5780 1905 l0 -365 94 0 c89 0 94 1 99 23 3 12 6 176 7 365 l1 342
-100 0 -101 0 0 -365z"/>
<path d="M2130 1905 l0 -255 95 0 95 0 0 255 0 255 -95 0 -95 0 0 -255z"/>
<path d="M6020 1905 l0 -255 95 0 95 0 0 255 0 255 -95 0 -95 0 0 -255z"/>
<path d="M2610 1905 l0 -65 1560 0 1560 0 0 65 0 65 -1560 0 -1560 0 0 -65z"/>
</g>
</svg>
