<?xml version="1.0" standalone="no"?>
<!DOCTYPE svg PUBLIC "-//W3C//DTD SVG 20010904//EN"
 "http://www.w3.org/TR/2001/REC-SVG-20010904/DTD/svg10.dtd">
<svg version="1.0" xmlns="http://www.w3.org/2000/svg"
 width="960.000000pt" height="1037.000000pt" viewBox="0 0 960.000000 1037.000000"
 preserveAspectRatio="xMidYMid meet">

<g transform="translate(0.000000,1037.000000) scale(0.100000,-0.100000)"
fill="#000000" stroke="none">
<path d="M1997 7952 c-9 -2 -19 -13 -22 -25 -3 -12 -4 -328 -3 -702 l3 -680
565 0 565 0 -555 5 -555 5 -3 693 -2 692 3007 -2 3008 -3 3 -1517 2 -1518
-1077 0 c-592 0 -1074 -2 -1072 -5 3 -2 491 -5 1085 -5 l1079 -1 3 1531 c1
841 -1 1530 -5 1530 -141 2 -6015 4 -6026 2z"/>
<path d="M4680 7771 c-129 -30 -226 -121 -267 -252 -13 -40 -18 -88 -17 -184
0 -140 16 -203 72 -288 73 -110 238 -168 416 -146 238 30 358 196 343 473 -11
195 -76 309 -217 374 -48 22 -71 26 -175 28 -66 2 -136 -1 -155 -5z m182 -192
c76 -20 118 -108 118 -244 0 -89 -15 -143 -53 -190 -50 -62 -163 -69 -224 -12
-37 34 -63 118 -63 205 1 188 85 280 222 241z"/>
<path d="M3106 7762 c-3 -5 0 -26 5 -48 22 -80 31 -116 109 -434 44 -179 83
-335 86 -347 6 -22 10 -23 144 -23 123 0 139 2 144 18 3 9 19 80 36 157 17 77
35 160 41 185 6 25 16 74 23 110 l13 65 10 -40 c6 -22 32 -141 59 -265 l49
-225 140 0 140 0 22 85 c34 129 171 690 178 733 l7 38 -113 -3 -113 -3 -7 -30
c-29 -137 -63 -291 -75 -345 -8 -36 -22 -103 -31 -149 -9 -49 -19 -78 -23 -70
-4 8 -15 57 -24 109 -9 52 -27 140 -40 195 -13 55 -32 136 -41 180 -27 122
-19 115 -140 115 -90 0 -104 -2 -109 -17 -2 -10 -12 -49 -21 -88 -9 -38 -27
-113 -40 -165 -12 -52 -33 -148 -46 -212 -12 -65 -26 -115 -30 -112 -5 2 -11
21 -14 42 -6 34 -23 118 -45 217 -14 65 -41 186 -52 240 -21 100 -14 95 -132
95 -58 0 -107 -4 -110 -8z"/>
<path d="M5387 7764 c-4 -4 -7 -198 -7 -431 l0 -424 118 3 117 3 3 153 3 153
25 -3 c22 -2 40 -28 114 -153 l88 -150 132 -3 c113 -2 132 0 127 12 -3 8 -56
89 -116 180 -61 91 -111 168 -111 172 0 4 20 24 44 45 63 56 86 109 86 198 0
85 -21 134 -75 179 -68 55 -119 66 -340 70 -110 2 -204 0 -208 -4z m357 -198
c22 -14 26 -24 26 -64 -1 -71 -34 -102 -109 -102 l-41 0 0 96 0 97 49 -5 c28
-3 61 -12 75 -22z"/>
<path d="M6197 7763 c-4 -3 -7 -197 -7 -430 l0 -423 120 0 120 0 0 139 0 140
29 20 c38 27 34 32 145 -186 l57 -112 126 -3 c86 -2 127 1 130 8 2 6 -46 100
-107 208 -61 108 -118 211 -126 229 l-16 33 63 90 c34 49 91 130 126 179 34
50 63 96 63 103 0 9 -31 12 -122 12 l-123 0 -32 -48 c-109 -163 -196 -287
-204 -290 -5 -2 -9 69 -9 167 l0 171 -113 0 c-63 0 -117 -3 -120 -7z"/>
<path d="M3310 6545 c0 -264 2 -305 15 -305 13 0 15 23 15 143 0 79 4 147 9
153 6 5 84 8 185 6 l175 -3 3 -147 c3 -123 5 -147 18 -147 13 0 15 41 18 294
1 197 -1 298 -8 305 -21 21 -30 -20 -30 -146 l0 -128 -173 0 c-121 0 -177 4
-185 12 -8 8 -12 54 -12 140 0 107 -2 128 -15 128 -13 0 -15 -41 -15 -305z"/>
<path d="M4087 6838 c-48 -121 -119 -298 -126 -313 -5 -11 -28 -67 -51 -125
-22 -58 -46 -115 -52 -127 -6 -13 -8 -26 -4 -30 16 -16 39 18 78 115 l41 102
122 0 c86 0 126 -4 133 -12 5 -7 27 -57 48 -110 28 -74 42 -98 56 -98 10 0 18
2 18 6 0 3 -32 87 -72 187 -162 412 -176 442 -191 405z m55 -153 c16 -44 38
-102 49 -128 11 -26 17 -52 14 -57 -7 -12 -202 -13 -209 -2 -7 12 96 273 107
269 5 -1 22 -38 39 -82z"/>
<path d="M4455 6837 c-3 -7 -4 -143 -3 -302 3 -250 5 -290 18 -290 12 0 15 23
18 133 l3 132 77 0 77 0 80 -135 c57 -96 85 -135 99 -135 24 0 22 5 -63 145
-39 64 -71 120 -71 125 0 5 19 19 42 32 23 13 51 38 61 56 22 38 27 115 9 158
-15 35 -67 73 -119 85 -60 14 -223 11 -228 -4z m249 -38 c68 -33 92 -110 57
-182 -29 -59 -71 -77 -186 -77 l-85 0 0 141 0 141 93 -4 c52 -2 105 -10 121
-19z"/>
<path d="M4967 6829 c-10 -37 -8 -562 2 -578 7 -11 34 -13 127 -9 130 5 192
24 247 76 80 75 108 234 65 358 -22 63 -65 111 -125 140 -49 24 -70 28 -183
32 -127 5 -127 5 -133 -19z m243 -20 c146 -33 213 -192 160 -382 -14 -48 -62
-102 -114 -129 -34 -18 -59 -22 -146 -22 l-105 -1 -3 260 c-1 143 0 265 3 272
6 16 139 17 205 2z"/>
<path d="M1255 6149 c-3 -8 -4 -203 -3 -434 l3 -420 135 -3 c289 -6 428 40
519 172 77 112 97 313 45 456 -35 96 -113 170 -219 210 -53 20 -85 23 -267 28
-172 4 -208 2 -213 -9z m384 -204 c90 -46 125 -190 82 -336 -22 -73 -92 -119
-181 -119 l-50 0 0 235 0 235 60 0 c34 0 74 -7 89 -15z"/>
<path d="M2138 6154 c-5 -4 -8 -195 -8 -424 0 -310 3 -419 12 -428 8 -8 48
-12 114 -12 84 0 103 3 108 16 3 9 6 78 6 154 0 204 19 203 146 -12 l90 -153
128 -3 c119 -2 128 -1 124 15 -3 10 -55 94 -116 186 l-112 168 53 52 c144 140
105 348 -78 417 -53 20 -84 23 -260 27 -110 3 -203 2 -207 -3z m324 -184 c103
-29 87 -160 -22 -180 -68 -12 -70 -9 -70 89 0 48 3 91 7 94 9 10 42 8 85 -3z"/>
<path d="M2956 6151 c-9 -14 -7 -844 2 -853 4 -4 118 -7 253 -6 l244 3 0 95 0
95 -135 5 -135 5 0 70 0 70 105 2 c160 4 150 -3 150 103 0 106 10 99 -150 103
l-105 2 -3 49 c-2 27 0 52 5 57 4 4 58 8 118 10 168 3 156 -5 153 103 l-3 91
-247 3 c-136 1 -249 -2 -252 -7z"/>
<path d="M3793 6148 c-5 -7 -33 -87 -62 -178 -56 -174 -89 -274 -166 -508 -26
-79 -44 -150 -41 -158 5 -12 26 -14 122 -12 131 3 123 -2 151 93 l18 60 130 5
c95 4 133 2 141 -7 6 -7 17 -38 24 -70 7 -32 18 -64 23 -70 12 -16 244 -18
249 -3 3 10 -208 666 -256 795 l-22 60 -151 3 c-113 2 -153 -1 -160 -10z m211
-360 c39 -145 41 -138 -54 -138 -44 0 -80 4 -80 9 0 12 69 282 77 301 6 16 9
8 57 -172z"/>
<path d="M4486 6151 c-10 -15 -8 -843 2 -853 5 -5 51 -7 103 -6 l94 3 0 287
c0 222 2 279 11 255 6 -18 42 -142 80 -277 37 -135 72 -251 77 -257 7 -9 42
-13 113 -13 l104 0 11 28 c6 15 24 77 41 137 90 326 116 412 118 395 1 -8 2
-136 3 -285 l2 -270 105 0 105 0 3 410 c1 226 0 420 -3 433 -5 22 -8 22 -155
22 -159 0 -157 0 -170 -54 -13 -54 -152 -531 -156 -535 -8 -9 -15 12 -92 276
-44 149 -85 280 -91 292 -11 20 -19 21 -156 21 -79 0 -146 -4 -149 -9z"/>
<path d="M4515 5192 c-3 -3 -5 -142 -5 -310 l0 -304 128 4 c113 3 135 7 177
28 114 59 124 209 17 268 -48 27 -52 37 -17 46 36 9 75 72 75 121 0 71 -46
122 -127 140 -40 8 -241 14 -248 7z m268 -46 c48 -19 67 -51 67 -109 0 -42 -5
-53 -30 -77 -36 -34 -81 -43 -195 -38 l-80 3 -3 109 c-4 141 -4 140 115 133
51 -4 108 -13 126 -21z m-12 -267 c19 -7 46 -23 62 -37 24 -23 27 -33 27 -85
0 -78 -23 -111 -92 -132 -62 -18 -199 -20 -216 -3 -13 13 -18 249 -5 261 11
11 188 8 224 -4z"/>
<path d="M5050 4890 c0 -258 2 -310 14 -310 8 0 17 7 20 16 3 9 6 141 6 294 0
153 -3 285 -6 294 -3 9 -12 16 -20 16 -12 0 -14 -52 -14 -310z"/>
<path d="M5427 5183 c-134 -45 -216 -204 -187 -365 21 -116 82 -193 179 -226
49 -17 193 -15 257 4 l54 15 0 134 c0 97 -3 134 -12 137 -7 2 -56 4 -108 4
-78 -1 -95 -4 -95 -16 0 -12 17 -15 85 -16 l85 -2 0 -113 0 -113 -30 -8 c-60
-17 -189 -11 -236 9 -55 25 -114 89 -128 140 -18 63 -13 212 8 258 23 51 74
102 126 126 50 23 161 25 231 4 31 -9 52 -11 58 -5 41 41 -186 66 -287 33z"/>
<path d="M900 4100 l0 -800 358 2 357 3 -350 5 -350 5 -3 774 c-1 565 1 777 9
787 10 12 288 14 1717 14 938 0 1707 2 1710 5 3 3 -772 5 -1721 5 l-1727 0 0
-800z"/>
<path d="M4497 4524 c-4 -4 -7 -198 -7 -431 l0 -424 108 3 107 3 0 230 c0 127
-3 254 -7 283 -13 99 -15 102 246 -401 l61 -117 155 2 155 3 3 375 c2 206 0
399 -3 428 l-6 52 -100 0 -99 0 0 -286 c0 -157 -4 -283 -8 -280 -5 3 -32 49
-60 103 -28 54 -93 179 -145 278 l-94 180 -150 3 c-82 1 -152 -1 -156 -4z"/>
<path d="M5500 4100 l0 -430 255 0 256 0 -3 93 -3 92 -135 5 -135 5 -3 35 c-2
19 -1 54 3 77 l6 43 125 0 125 0 -3 93 -3 92 -125 5 -125 5 -3 39 c-2 22 -1
50 2 63 6 23 8 23 142 23 l135 0 -3 93 -3 92 -252 3 -253 2 0 -430z"/>
<path d="M6074 4516 c-3 -7 15 -74 39 -147 25 -74 86 -261 137 -417 l91 -283
141 3 141 3 48 145 c26 80 88 269 137 420 50 151 87 279 83 283 -4 4 -63 6
-131 5 l-123 -3 -34 -120 c-50 -182 -100 -375 -108 -419 -3 -21 -10 -35 -14
-30 -4 5 -20 59 -34 119 -33 134 -92 359 -109 411 l-13 39 -123 3 c-99 2 -123
0 -128 -12z"/>
<path d="M6990 4100 l0 -430 254 0 c288 0 266 -7 266 88 0 107 7 101 -149 104
l-136 3 -3 54 c-6 104 -10 101 134 101 l125 0 -3 93 -3 92 -120 3 c-80 2 -122
7 -127 15 -9 14 -10 79 -2 101 5 14 27 16 139 16 112 0 134 2 139 16 8 20 8
103 0 143 l-6 31 -254 0 -254 0 0 -430z"/>
<path d="M7650 4100 l0 -430 115 0 115 0 0 149 c0 95 4 152 11 156 30 19 56
-9 140 -152 l85 -148 132 -3 c73 -1 132 0 132 3 0 3 -44 72 -98 153 -54 81
-107 161 -117 178 l-18 31 56 54 c65 64 82 110 74 211 -5 83 -36 135 -103 174
-70 41 -148 53 -346 54 l-178 0 0 -430z m362 227 c11 -7 22 -24 25 -39 17 -85
-21 -128 -112 -128 l-45 0 0 89 c0 62 4 91 13 95 18 8 97 -4 119 -17z"/>
<path d="M1965 3608 c-74 -10 -138 -48 -186 -112 -46 -60 -63 -130 -57 -233 8
-133 64 -215 174 -254 49 -18 74 -20 149 -16 50 3 107 11 128 17 l37 11 0 140
0 140 -107 -3 c-72 -2 -108 -7 -110 -15 -3 -9 21 -13 89 -15 l93 -3 3 -106 c3
-133 4 -132 -132 -137 -95 -3 -104 -2 -156 25 -101 52 -141 146 -127 299 16
170 147 263 326 233 36 -6 72 -16 79 -22 9 -7 16 -6 25 2 9 10 8 15 -7 26 -17
13 -37 17 -136 29 -14 1 -52 -1 -85 -6z"/>
<path d="M2380 3305 c0 -264 2 -305 15 -305 13 0 15 41 15 305 0 264 -2 305
-15 305 -13 0 -15 -41 -15 -305z"/>
<path d="M2520 3592 c0 -11 18 -67 39 -124 22 -56 70 -185 108 -286 56 -153
70 -182 86 -180 19 3 33 36 147 343 28 77 61 163 72 192 23 59 17 84 -13 57
-10 -9 -19 -22 -19 -28 0 -6 -12 -42 -26 -81 -76 -204 -140 -380 -150 -414 -6
-18 -34 5 -34 28 0 14 -28 92 -144 395 -39 103 -66 143 -66 98z"/>
<path d="M3123 3603 l-33 -4 0 -300 0 -299 165 0 c140 0 165 2 165 15 0 13
-23 15 -145 15 l-146 0 3 133 3 132 133 3 c107 2 132 5 132 17 0 12 -25 15
-132 17 l-133 3 0 119 0 119 143 -2 c138 -2 142 -2 142 18 0 20 -5 21 -132 19
-73 0 -148 -3 -165 -5z"/>
<path d="M3794 3597 c-3 -8 -4 -118 -2 -244 l3 -230 27 -40 c39 -59 87 -85
168 -91 114 -8 195 33 234 117 19 42 21 63 21 256 0 206 -5 252 -25 240 -6 -4
-10 -80 -10 -199 0 -226 -9 -288 -48 -329 -78 -84 -238 -75 -306 16 -20 26
-21 45 -26 269 -4 181 -8 242 -17 246 -7 2 -16 -3 -19 -11z"/>
<path d="M4425 3601 c-3 -2 -5 -139 -5 -303 0 -255 2 -298 15 -298 12 0 15 23
17 123 l3 122 91 6 c156 10 224 59 232 168 8 106 -42 163 -157 182 -60 9 -187
10 -196 0z m244 -46 c50 -25 71 -61 71 -121 0 -113 -45 -147 -189 -148 l-96
-1 -3 134 c-1 74 0 142 3 149 4 12 22 14 96 9 49 -4 103 -14 118 -22z"/>
</g>
</svg>
