<?xml version="1.0" encoding="UTF-8"?>
<svg version="1.1" xmlns="http://www.w3.org/2000/svg" width="500" height="500">
<path d="M0 0 C165 0 330 0 500 0 C500 165 500 330 500 500 C335 500 170 500 0 500 C0 335 0 170 0 0 Z " fill="#100932" transform="translate(0,0)"/>
<path d="M0 0 C0.33 0.99 0.66 1.98 1 3 C2.72765164 4.71289005 2.72765164 4.71289005 4.8125 6.375 C11.18326437 11.84542379 13.63624343 15.77439459 15 24 C15.20625 25.051875 15.4125 26.10375 15.625 27.1875 C17.16633607 42.85775007 17.16633607 42.85775007 14.66015625 47.4609375 C13 49.375 13 49.375 10 52 C11.65 52 13.3 52 15 52 C14.60196439 54.88575819 14.20990931 55.82189513 11.9375 57.75 C11.298125 58.1625 10.65875 58.575 10 59 C11.48117801 58.71872579 12.95993249 58.42466268 14.4375 58.125 C15.26121094 57.96257812 16.08492187 57.80015625 16.93359375 57.6328125 C17.61550781 57.42398438 18.29742187 57.21515625 19 57 C21.16531956 52.66936088 19.87308196 47.58368029 19 43 C20.98 42.01 20.98 42.01 23 41 C23.33 43.31 23.66 45.62 24 48 C24.99 47.01 24.99 47.01 26 46 C26.474375 47.11375 26.94875 48.2275 27.4375 49.375 C28.25306463 51.26710994 29.07856355 53.15712709 30 55 C36.6 55.33 43.2 55.66 50 56 C50 58.64 50 61.28 50 64 C46.37 64.33 42.74 64.66 39 65 C39.55429687 65.60328125 40.10859375 66.2065625 40.6796875 66.828125 C41.40414062 67.62734375 42.12859375 68.4265625 42.875 69.25 C43.59429687 70.03890625 44.31359375 70.8278125 45.0546875 71.640625 C48.6099464 75.95262575 49.2469642 78.63964677 49.125 84.25 C49.10695313 85.32765625 49.08890625 86.4053125 49.0703125 87.515625 C49.04710937 88.33546875 49.02390625 89.1553125 49 90 C48.34 90 47.68 90 47 90 C42.86307414 103.77861228 42.86307414 103.77861228 41 118 C44.96 118 48.92 118 53 118 C53 118.99 53 119.98 53 121 C53.66 121 54.32 121 55 121 C55 126.28 55 131.56 55 137 C49.39 137 43.78 137 38 137 C38 140.3 38 143.6 38 147 C39.19625 146.9175 40.3925 146.835 41.625 146.75 C46.13196864 146.75796284 48.51288035 148.06764939 52 151 C57.93338311 157.73519164 57.2151296 163.01496428 57.25 171.75 C57.2809375 173.66425781 57.2809375 173.66425781 57.3125 175.6171875 C57.32023437 177.46957031 57.32023437 177.46957031 57.328125 179.359375 C57.3374707 180.48827148 57.34681641 181.61716797 57.35644531 182.78027344 C56.82674065 187.56503034 55.49764221 190.76240693 51.75317383 193.85668945 C48.31325434 195.28518488 45.67080142 195.34047832 41.94921875 195.29296875 C41.29041214 195.28872391 40.63160553 195.28447906 39.95283508 195.28010559 C37.86396115 195.26341196 35.77607861 195.22578058 33.6875 195.1875 C32.26498797 195.17244097 30.8424607 195.15875469 29.41992188 195.14648438 C25.94629649 195.11354003 22.47324513 195.06182408 19 195 C19 194.01 19 193.02 19 192 C18.01 192 17.02 192 16 192 C16 186.72 16 181.44 16 176 C21.94 176 27.88 176 34 176 C34 172.7 34 169.4 34 166 C32.2675 166.2165625 32.2675 166.2165625 30.5 166.4375 C25.59563607 166.4375 23.11243378 164.33163953 19.69921875 160.9921875 C14.90230959 155.36822504 15 151.44485888 15 144 C8.73 143.67 2.46 143.34 -4 143 C-4 144.32 -4 145.64 -4 147 C0.95 147 5.9 147 11 147 C11 147.99 11 148.98 11 150 C11.99 150 12.98 150 14 150 C14 155.28 14 160.56 14 166 C8.06 166 2.12 166 -4 166 C-4 169.3 -4 172.6 -4 176 C0.95 176 5.9 176 11 176 C11 176.99 11 177.98 11 179 C11.99 179 12.98 179 14 179 C14 184.28 14 189.56 14 195 C9.71083233 195.13844295 5.42952242 195.25760814 1.13989258 195.32958984 C-0.31610483 195.35961041 -1.77192369 195.40044228 -3.22729492 195.45263672 C-16.86595758 195.92921897 -16.86595758 195.92921897 -21.30859375 192.4765625 C-25.39555178 188.47977338 -27.12170355 182.3661665 -27.34057617 176.78710938 C-27.34011011 175.30590465 -27.32369895 173.82463599 -27.29296875 172.34375 C-27.28872391 171.55601196 -27.28447906 170.76827393 -27.28010559 169.95666504 C-27.26347617 167.4707441 -27.22585614 164.98567081 -27.1875 162.5 C-27.17243271 160.80209514 -27.15874791 159.10417742 -27.14648438 157.40625 C-27.11362466 153.27051281 -27.06195474 149.1353995 -27 145 C-27.66 144.67 -28.32 144.34 -29 144 C-29.33 160.83 -29.66 177.66 -30 195 C-36.93 195 -43.86 195 -51 195 C-51 194.01 -51 193.02 -51 192 C-51.66 192 -52.32 192 -53 192 C-53 174.18 -53 156.36 -53 138 C-58.10737233 140.2745047 -58.10737233 140.2745047 -58.63923645 143.41081238 C-58.6492292 144.83977592 -58.6492292 144.83977592 -58.65942383 146.29760742 C-58.68888847 147.91894844 -58.68888847 147.91894844 -58.71894836 149.57304382 C-58.71501572 150.73874405 -58.71108307 151.90444427 -58.70703125 153.10546875 C-58.72971321 154.89698112 -58.72971321 154.89698112 -58.75285339 156.72468567 C-58.79590004 160.5458133 -58.80458533 164.36615355 -58.8125 168.1875 C-58.83563091 170.77541181 -58.86099328 173.36330471 -58.88867188 175.95117188 C-58.9516927 182.30085138 -58.98389536 188.65003513 -59 195 C-65.27 195 -71.54 195 -78 195 C-78 194.01 -78 193.02 -78 192 C-79.32 192 -80.64 192 -82 192 C-82 174.18 -82 156.36 -82 138 C-84.97 138 -87.94 138 -91 138 C-91 156.81 -91 175.62 -91 195 C-97.6 195 -104.2 195 -111 195 C-111 194.01 -111 193.02 -111 192 C-111.99 192 -112.98 192 -114 192 C-114 173.85 -114 155.7 -114 137 C-115.98 137 -117.96 137 -120 137 C-120 136.01 -120 135.02 -120 134 C-120.99 134 -121.98 134 -123 134 C-123 154.13 -123 174.26 -123 195 C-129.6 195 -136.2 195 -143 195 C-143 194.01 -143 193.02 -143 192 C-143.99 192 -144.98 192 -146 192 C-146 167.58 -146 143.16 -146 118 C-139.4 118 -132.8 118 -126 118 C-126 118.99 -126 119.98 -126 121 C-124.02 120.505 -124.02 120.505 -122 120 C-121.61328125 120.48210937 -121.2265625 120.96421875 -120.828125 121.4609375 C-120.30734375 122.09257812 -119.7865625 122.72421875 -119.25 123.375 C-118.73953125 124.00148438 -118.2290625 124.62796875 -117.703125 125.2734375 C-115.09584188 127.91660067 -113.08816859 128.90431901 -109.37890625 129.23046875 C-108.44949219 129.21628906 -107.52007812 129.20210937 -106.5625 129.1875 C-105.63566406 129.18105469 -104.70882812 129.17460937 -103.75390625 129.16796875 C-101.08283944 129.00505262 -98.60658042 128.5913295 -96 128 C-96 127.01 -96 126.02 -96 125 C-99.01490557 123.99503148 -101.04181692 123.89664697 -104.1875 123.9375 C-105.08855469 123.94652344 -105.98960937 123.95554687 -106.91796875 123.96484375 C-107.60503906 123.97644531 -108.29210937 123.98804688 -109 124 C-105.78130827 120.29393538 -102.69204851 119.99994477 -98 119 C-103.59243959 118.67103297 -107.30005591 118.58185884 -112 122 C-112.66 122 -113.32 122 -114 122 C-112.125 116.125 -112.125 116.125 -111 115 C-110.6027674 109.43165018 -111.63390489 105.20182681 -113.5 100.0625 C-113.73847656 99.37865234 -113.97695312 98.69480469 -114.22265625 97.99023438 C-114.80545882 96.32341903 -115.40137051 94.66119684 -116 93 C-115.01 92.01 -114.02 91.02 -113 90 C-114.32 89.34 -115.64 88.68 -117 88 C-116.67 87.67 -116.34 87.34 -116 87 C-116.99 86.34 -117.98 85.68 -119 85 C-118.01 84.01 -117.02 83.02 -116 82 C-117.32 81.34 -118.64 80.68 -120 80 C-119.67 79.67 -119.34 79.34 -119 79 C-120.32 78.34 -121.64 77.68 -123 77 C-122.01 76.01 -122.01 76.01 -121 75 C-122.1446875 74.9071875 -122.1446875 74.9071875 -123.3125 74.8125 C-126.84844623 73.743493 -127.23947323 72.12093381 -129 69 C-129.99 69 -130.98 69 -132 69 C-132.99 73.95 -132.99 73.95 -134 79 C-134.33 79 -134.66 79 -135 79 C-135.495 71.575 -135.495 71.575 -136 64 C-140.62 64 -145.24 64 -150 64 C-150 61.36 -150 58.72 -150 56 C-146.37 56 -142.74 56 -139 56 C-138.9175 55.13375 -138.835 54.2675 -138.75 53.375 C-137.23092274 46.53915234 -132.28511933 41.37999063 -127 37 C-125.54254445 36.16904063 -124.062043 35.37735692 -122.5625 34.625 C-118.87696638 32.73850652 -116.60235058 30.66646951 -113.9375 27.5 C-107.99964476 20.46340777 -102.30149953 17.88047653 -93.46875 15.66015625 C-88.46236196 14.32142274 -85.82378127 11.82359239 -82.375 8.125 C-76.00236123 1.6987966 -69.11639228 -1.28105578 -60.0390625 -1.41796875 C-57.56704418 -1.3667964 -55.09544007 -1.28957362 -52.625 -1.1875 C-44.14959716 -0.91539496 -36.26480805 -1.07043499 -27.89794922 -2.52612305 C-18.57736078 -4.05023949 -8.62853802 -4.08720222 0 0 Z " fill="#060606" transform="translate(296,142)"/>
<path d="M0 0 C2.04995291 1.23077881 3.76545824 2.53479729 5.546875 4.12890625 C6.19527344 4.70640625 6.84367188 5.28390625 7.51171875 5.87890625 C16.38052318 14.29429532 16.51619124 24.75237496 17.046875 36.56640625 C17.00478015 41.2441964 16.61020028 43.91316884 13.546875 47.50390625 C12.556875 48.37015625 11.566875 49.23640625 10.546875 50.12890625 C12.196875 50.12890625 13.846875 50.12890625 15.546875 50.12890625 C15.14883939 53.01466444 14.75678431 53.95080138 12.484375 55.87890625 C11.845 56.29140625 11.205625 56.70390625 10.546875 57.12890625 C12.02805301 56.84763204 13.50680749 56.55356893 14.984375 56.25390625 C15.80808594 56.09148437 16.63179687 55.9290625 17.48046875 55.76171875 C18.16238281 55.55289063 18.84429687 55.3440625 19.546875 55.12890625 C21.71219456 50.79826713 20.41995696 45.71258654 19.546875 41.12890625 C21.526875 40.13890625 21.526875 40.13890625 23.546875 39.12890625 C24.95811868 46.96634881 25.79078044 54.67310523 25.921875 62.62890625 C25.96054687 63.7578833 25.96054687 63.7578833 26 64.90966797 C26.01890696 70.20479801 25.00143234 73.07076454 21.546875 77.12890625 C20.886875 77.12890625 20.226875 77.12890625 19.546875 77.12890625 C19.18335938 78.88654297 19.18335938 78.88654297 18.8125 80.6796875 C13.68994177 104.92405331 13.68994177 104.92405331 7.546875 110.12890625 C0.23362099 113.79922849 -8.46889914 114.13956775 -16.453125 113.12890625 C-20.03499042 111.1623919 -20.87907673 109.65347164 -22.29296875 105.8984375 C-25.69162837 94.18067076 -26.90031191 81.31507839 -27.875 69.17578125 C-28.43491143 59.30068212 -28.43491143 59.30068212 -33.6875 51.28515625 C-39.23576909 47.65177649 -44.93955211 46.71047526 -51.453125 46.12890625 C-48.65416266 54.83169078 -39.85531888 60.29113635 -32.16796875 64.546875 C-29.17347543 67.30944857 -29.5361621 70.62360855 -29.3215332 74.5144043 C-29.20971857 77.30362921 -29.16891483 80.08764294 -29.140625 82.87890625 C-29.09711914 84.2865625 -29.09711914 84.2865625 -29.05273438 85.72265625 C-28.98329627 93.45699263 -31.0271714 99.27699904 -34.453125 106.12890625 C-33.133125 105.46890625 -31.813125 104.80890625 -30.453125 104.12890625 C-32.328125 108.87890625 -32.328125 108.87890625 -33.453125 111.12890625 C-32.669375 110.61328125 -31.885625 110.09765625 -31.078125 109.56640625 C-30.211875 109.09203125 -29.345625 108.61765625 -28.453125 108.12890625 C-27.793125 108.45890625 -27.133125 108.78890625 -26.453125 109.12890625 C-29.97518549 115.0893163 -33.45941626 118.13100334 -40.203125 120.37890625 C-44.93289456 121.36843577 -49.65833345 121.91561643 -54.453125 121.12890625 C-66.94362261 112.43986443 -68.54052919 90.89350475 -71.45581055 77.03662109 C-71.88591062 75.00311747 -72.32710682 72.97225848 -72.76953125 70.94140625 C-73.02162354 69.75160156 -73.27371582 68.56179687 -73.53344727 67.3359375 C-74.93872653 62.43555299 -76.46148049 59.82889061 -80.640625 56.87890625 C-84.52105187 54.82261167 -88.10349203 54.43414365 -92.453125 54.12890625 C-92.453125 55.11890625 -92.453125 56.10890625 -92.453125 57.12890625 C-91.89753906 57.39316406 -91.34195313 57.65742188 -90.76953125 57.9296875 C-85.17423248 60.82641047 -79.79575395 63.9471342 -76.453125 69.37890625 C-75.958125 71.23515625 -75.958125 71.23515625 -75.453125 73.12890625 C-75.15341797 74.19238281 -75.15341797 74.19238281 -74.84765625 75.27734375 C-73.32234557 81.76759189 -73.21544213 88.30609808 -73.140625 94.94140625 C-73.12298096 95.84906738 -73.10533691 96.75672852 -73.0871582 97.69189453 C-73.09321376 103.65386184 -73.63626929 108.30519687 -78.05859375 112.73828125 C-78.58066406 113.1146875 -79.10273438 113.49109375 -79.640625 113.87890625 C-80.56875 114.62140625 -81.496875 115.36390625 -82.453125 116.12890625 C-82.453125 116.78890625 -82.453125 117.44890625 -82.453125 118.12890625 C-82.00324219 117.76796875 -81.55335938 117.40703125 -81.08984375 117.03515625 C-76.05150237 113.40028071 -72.09742042 112.40140578 -65.890625 112.703125 C-63.453125 113.12890625 -63.453125 113.12890625 -60.703125 114.87890625 C-59.453125 117.12890625 -59.453125 117.12890625 -59.390625 119.19140625 C-61.18815145 122.46924861 -63.85040532 123.58794636 -67.31640625 124.7578125 C-72.58811295 126.22160679 -77.54538563 126.78314761 -82.953125 125.56640625 C-97.09971685 117.43211594 -101.54930289 98.73744923 -105.91015625 84.16015625 C-106.42307786 82.48264381 -106.93732854 80.80553697 -107.453125 79.12890625 C-107.67685791 78.36570068 -107.90059082 77.60249512 -108.13110352 76.81616211 C-109.23427698 73.40894657 -110.1187147 71.39716945 -112.94140625 69.1328125 C-114.33939453 68.41931641 -114.33939453 68.41931641 -115.765625 67.69140625 C-121.30709395 64.46072249 -124.98036485 61.14027144 -127.453125 55.12890625 C-127.703125 51.37890625 -127.703125 51.37890625 -126.453125 48.12890625 C-123.15280473 44.7535787 -119.99049315 42.47785354 -115.453125 41.12890625 C-114.463125 41.12890625 -113.473125 41.12890625 -112.453125 41.12890625 C-111.1091157 43.12174763 -109.77771208 45.12310296 -108.453125 47.12890625 C-106.54952284 49.06757477 -104.67520007 50.52144769 -102.453125 52.12890625 C-101.463125 52.12890625 -100.473125 52.12890625 -99.453125 52.12890625 C-99.87464844 51.65839844 -100.29617187 51.18789062 -100.73046875 50.703125 C-101.27832031 50.08050781 -101.82617188 49.45789063 -102.390625 48.81640625 C-102.93589844 48.20152344 -103.48117188 47.58664063 -104.04296875 46.953125 C-106.90100312 43.2558894 -106.76399905 39.63658001 -106.453125 35.12890625 C-104.65784972 30.97142665 -102.65787982 28.82870075 -98.453125 27.12890625 C-93.91814824 26.7298283 -89.79005674 26.68326234 -85.453125 28.12890625 C-85.246875 26.97390625 -85.040625 25.81890625 -84.828125 24.62890625 C-83.54467629 19.57588788 -81.13535887 15.80269463 -77.453125 12.12890625 C-72.73731834 9.38516419 -68.86784576 8.28869096 -63.453125 9.12890625 C-56.49245838 12.19860062 -51.63010376 17.87290086 -46.7902832 23.5456543 C-42.68274196 28.26491263 -38.59232197 30.6882172 -32.453125 32.12890625 C-32.49953125 30.92234375 -32.5459375 29.71578125 -32.59375 28.47265625 C-32.63129787 26.85809789 -32.66769477 25.24351247 -32.703125 23.62890625 C-32.73664063 22.83742187 -32.77015625 22.0459375 -32.8046875 21.23046875 C-32.900917 15.3604692 -31.85373743 10.98021909 -28.453125 6.12890625 C-26.19921875 4.0703125 -26.19921875 4.0703125 -23.890625 2.69140625 C-23.12621094 2.21832031 -22.36179687 1.74523437 -21.57421875 1.2578125 C-15.35533847 -2.05205196 -6.61350247 -2.34842524 0 0 Z " fill="#F9F9F9" transform="translate(295.453125,143.87109375)"/>
<path d="M0 0 C6.6 0 13.2 0 20 0 C20 0.99 20 1.98 20 3 C21.32 2.67 22.64 2.34 24 2 C24.38671875 2.48210937 24.7734375 2.96421875 25.171875 3.4609375 C25.69265625 4.09257812 26.2134375 4.72421875 26.75 5.375 C27.26046875 6.00148438 27.7709375 6.62796875 28.296875 7.2734375 C30.82164642 9.83295348 32.87338278 10.86142248 36.4453125 11.30078125 C42.37318508 11.32670489 47.23807141 10.62344964 52.80859375 8.55859375 C56.28374492 7.6727709 58.5069972 8.79831704 61.75 10.125 C62.86375 11.053125 62.86375 11.053125 64 12 C64.3125 15.6875 64.3125 15.6875 64 19 C61.03 19 58.06 19 55 19 C55 38.14 55 57.28 55 77 C48.4 77 41.8 77 35 77 C35 76.01 35 75.02 35 74 C34.01 74 33.02 74 32 74 C32 55.85 32 37.7 32 19 C30.02 19 28.04 19 26 19 C26 18.01 26 17.02 26 16 C25.01 16 24.02 16 23 16 C23 36.13 23 56.26 23 77 C16.4 77 9.8 77 3 77 C3 76.01 3 75.02 3 74 C2.01 74 1.02 74 0 74 C0 49.58 0 25.16 0 0 Z " fill="#F0D000" transform="translate(150,260)"/>
<path d="M0 0 C1.3342105 0.32980484 2.66734637 0.66395953 4 1 C10.73405357 1.3605635 17.32587982 0.87529445 24 0 C24.05607422 1.17755859 24.05607422 1.17755859 24.11328125 2.37890625 C24.21189453 3.95478516 24.21189453 3.95478516 24.3125 5.5625 C24.37050781 6.59503906 24.42851562 7.62757813 24.48828125 8.69140625 C24.82877014 12.04849596 24.82877014 12.04849596 26.51367188 14.93945312 C28.81695174 20.18716394 28.3705918 25.64665574 28.29296875 31.27734375 C28.28872391 32.4438295 28.28447906 33.61031525 28.28010559 34.81214905 C28.26337522 38.52083874 28.22573221 42.22897582 28.1875 45.9375 C28.17244593 48.4589765 28.15875879 50.98046156 28.14648438 53.50195312 C28.11348997 59.66818017 28.06174553 65.83399653 28 72 C21.4 72 14.8 72 8 72 C8 71.01 8 70.02 8 69 C7.34 69 6.68 69 6 69 C6 51.18 6 33.36 6 15 C0.89262767 17.2745047 0.89262767 17.2745047 0.36076355 20.41081238 C0.35410172 21.36345474 0.34743988 22.31609711 0.34057617 23.29760742 C0.32093307 24.37850143 0.30128998 25.45939545 0.28105164 26.57304382 C0.28498428 27.73874405 0.28891693 28.90444427 0.29296875 30.10546875 C0.27784744 31.29981033 0.26272614 32.49415192 0.24714661 33.72468567 C0.20409996 37.5458133 0.19541467 41.36615355 0.1875 45.1875 C0.16436909 47.77541181 0.13900672 50.36330471 0.11132812 52.95117188 C0.0483073 59.30085138 0.01610464 65.65003513 0 72 C-6.27 72 -12.54 72 -19 72 C-19 71.01 -19 70.02 -19 69 C-19.99 69 -20.98 69 -22 69 C-22 48.54 -22 28.08 -22 7 C-18.04 6.34 -14.08 5.68 -10 5 C-4.66301765 3.14511874 -4.66301765 3.14511874 0 0 Z " fill="#F2CF00" transform="translate(237,265)"/>
<path d="M0 0 C1.29228516 0.00966797 2.58457031 0.01933594 3.91601562 0.02929688 C5.27083945 0.0543589 6.62565716 0.07975369 7.98046875 0.10546875 C9.3548032 0.12052862 10.72915343 0.13421474 12.10351562 0.14648438 C15.45873507 0.18180247 18.81315041 0.23113024 22.16796875 0.29296875 C22.16796875 1.28296875 22.16796875 2.27296875 22.16796875 3.29296875 C23.15796875 3.29296875 24.14796875 3.29296875 25.16796875 3.29296875 C25.16796875 8.57296875 25.16796875 13.85296875 25.16796875 19.29296875 C19.22796875 19.29296875 13.28796875 19.29296875 7.16796875 19.29296875 C7.16796875 22.59296875 7.16796875 25.89296875 7.16796875 29.29296875 C8.96234375 29.16921875 8.96234375 29.16921875 10.79296875 29.04296875 C15.3195348 29.05893547 17.66651603 30.33618645 21.16796875 33.29296875 C27.55019706 39.74419413 27.39456834 45.3159809 27.48046875 53.98046875 C27.50947266 54.93630859 27.53847656 55.89214844 27.56835938 56.87695312 C27.6320192 64.06071946 26.68563014 70.69354852 21.47680664 76.0234375 C18.23228706 77.80746011 15.6833677 77.63127284 11.99609375 77.5859375 C11.31367615 77.58169266 10.63125854 77.57744781 9.92816162 77.57307434 C7.75768871 77.55633847 5.58815896 77.51869834 3.41796875 77.48046875 C1.94272178 77.46541521 0.4674602 77.45172797 -1.0078125 77.43945312 C-4.61618969 77.40645252 -8.22401835 77.35470642 -11.83203125 77.29296875 C-11.83203125 76.30296875 -11.83203125 75.31296875 -11.83203125 74.29296875 C-12.82203125 74.29296875 -13.81203125 74.29296875 -14.83203125 74.29296875 C-14.83203125 69.01296875 -14.83203125 63.73296875 -14.83203125 58.29296875 C-8.89203125 58.29296875 -2.95203125 58.29296875 3.16796875 58.29296875 C3.16796875 54.99296875 3.16796875 51.69296875 3.16796875 48.29296875 C2.01296875 48.43734375 0.85796875 48.58171875 -0.33203125 48.73046875 C-5.24461446 48.74795125 -7.659107 46.52080188 -11.16796875 43.3125 C-16.09366148 37.33460531 -15.16391103 30.18490248 -15.14453125 22.85546875 C-15.16064453 21.64052734 -15.17675781 20.42558594 -15.19335938 19.17382812 C-15.19400391 17.99755859 -15.19464844 16.82128906 -15.1953125 15.609375 C-15.19829346 14.54146729 -15.20127441 13.47355957 -15.2043457 12.37329102 C-14.63527246 7.66509617 -13.26755124 4.47205175 -9.5715332 1.4362793 C-6.19990218 0.02915444 -3.64992062 -0.04823684 0 0 Z " fill="#F1D000" transform="translate(368.83203125,259.70703125)"/>
<path d="M0 0 C10.89 0 21.78 0 33 0 C33 0.99 33 1.98 33 3 C33.66 3 34.32 3 35 3 C35 8.28 35 13.56 35 19 C31.04 19 27.08 19 23 19 C23 22.3 23 25.6 23 29 C26.3 29 29.6 29 33 29 C33 29.99 33 30.98 33 32 C33.66 32 34.32 32 35 32 C35 37.28 35 42.56 35 48 C31.04 48 27.08 48 23 48 C23 57.57 23 67.14 23 77 C16.4 77 9.8 77 3 77 C3 76.01 3 75.02 3 74 C2.01 74 1.02 74 0 74 C0 49.58 0 25.16 0 0 Z " fill="#F2D200" transform="translate(111,260)"/>
<path d="M0 0 C2.515625 0.5234375 2.515625 0.5234375 4.28125 2.421875 C4.77109375 3.23914063 5.2609375 4.05640625 5.765625 4.8984375 C6.51585937 6.11660156 6.51585937 6.11660156 7.28125 7.359375 C11.2197016 14.26412876 9.57138887 21.27433642 7.63647461 28.6315918 C7.23634155 30.09399292 7.23634155 30.09399292 6.828125 31.5859375 C5.09834231 38.11288875 3.4485955 44.61575497 2.1796875 51.25 C1.97174561 52.33273193 1.76380371 53.41546387 1.54956055 54.53100586 C1.16017569 56.6070344 0.78593318 58.68597652 0.42895508 60.76782227 C-0.39654342 65.12352551 -1.13493199 68.0223843 -3.69921875 71.69921875 C-7.35286106 74.0922776 -9.1817175 74.21427367 -13.484375 73.5234375 C-16.02643393 72.17013157 -18.17428579 70.87389235 -20.484375 69.2109375 C-29.7841655 62.70315999 -35.98992501 61.08247187 -47.421875 61.3359375 C-48.58267578 61.34947266 -49.74347656 61.36300781 -50.93945312 61.37695312 C-53.78824552 61.4121234 -56.63606344 61.46134463 -59.484375 61.5234375 C-59.484375 62.1834375 -59.484375 62.8434375 -59.484375 63.5234375 C-58.246875 63.6265625 -57.009375 63.7296875 -55.734375 63.8359375 C-52.2050884 64.26145432 -50.11276534 65.00456342 -47.484375 67.5234375 C-47.814375 69.1734375 -48.144375 70.8234375 -48.484375 72.5234375 C-54.36320849 75.13625238 -60.19169228 74.70671952 -66.484375 74.5234375 C-67.9626976 71.56679231 -67.54470283 68.78114013 -67.484375 65.5234375 C-68.969375 66.5134375 -68.969375 66.5134375 -70.484375 67.5234375 C-71.08127971 61.05033749 -70.74131778 56.59859388 -66.9296875 51.21875 C-65.01137685 48.96862346 -62.91899422 47.19289068 -60.484375 45.5234375 C-59.75347656 46.01263672 -59.75347656 46.01263672 -59.0078125 46.51171875 C-55.41121405 47.95369862 -51.92090866 47.77315326 -48.109375 47.7109375 C-46.995625 47.7099707 -46.995625 47.7099707 -45.859375 47.70898438 C-41.63262232 47.67537945 -37.64604805 47.34916628 -33.484375 46.5234375 C-32.989375 50.4834375 -32.989375 50.4834375 -32.484375 54.5234375 C-31.824375 51.8834375 -31.164375 49.2434375 -30.484375 46.5234375 C-30.175 47.1628125 -29.865625 47.8021875 -29.546875 48.4609375 C-28.6498587 50.45954571 -28.6498587 50.45954571 -27.484375 51.5234375 C-27.154375 49.8734375 -26.824375 48.2234375 -26.484375 46.5234375 C-25.824375 47.5134375 -25.164375 48.5034375 -24.484375 49.5234375 C-23.824375 48.8634375 -23.164375 48.2034375 -22.484375 47.5234375 C-21.824375 48.8434375 -21.164375 50.1634375 -20.484375 51.5234375 C-19.824375 50.5334375 -19.164375 49.5434375 -18.484375 48.5234375 C-17.164375 50.8334375 -15.844375 53.1434375 -14.484375 55.5234375 C-14.37367676 54.91870605 -14.26297852 54.31397461 -14.14892578 53.69091797 C-13.64018302 50.92591958 -13.12483693 48.16219082 -12.609375 45.3984375 C-12.43535156 44.44710937 -12.26132812 43.49578125 -12.08203125 42.515625 C-11.17826873 37.69555825 -10.10497626 33.16147626 -8.484375 28.5234375 C-6.96519942 21.43395146 -6.22734456 14.35470686 -5.92578125 7.1171875 C-5.24122161 3.09464236 -4.12815219 0.86976791 0 0 Z " fill="#F7F7F7" transform="translate(333.484375,209.4765625)"/>
<path d="M0 0 C1.86785156 0.01353516 1.86785156 0.01353516 3.7734375 0.02734375 C5.18496094 0.04474609 5.18496094 0.04474609 6.625 0.0625 C6.625 1.0525 6.625 2.0425 6.625 3.0625 C12.565 3.0625 18.505 3.0625 24.625 3.0625 C24.625 4.0525 24.625 5.0425 24.625 6.0625 C25.615 6.0625 26.605 6.0625 27.625 6.0625 C27.625 11.3425 27.625 16.6225 27.625 22.0625 C21.685 22.0625 15.745 22.0625 9.625 22.0625 C9.625 25.3625 9.625 28.6625 9.625 32.0625 C14.575 32.0625 19.525 32.0625 24.625 32.0625 C24.625 33.0525 24.625 34.0425 24.625 35.0625 C25.615 35.0625 26.605 35.0625 27.625 35.0625 C27.625 40.3425 27.625 45.6225 27.625 51.0625 C23.33583233 51.20094295 19.05452242 51.32010814 14.76489258 51.39208984 C13.30889517 51.42211041 11.85307631 51.46294228 10.39770508 51.51513672 C-3.24095758 51.99171897 -3.24095758 51.99171897 -7.68359375 48.5390625 C-11.77055178 44.54227338 -13.49670355 38.4286665 -13.71557617 32.84960938 C-13.71511011 31.36840465 -13.69869895 29.88713599 -13.66796875 28.40625 C-13.66372391 27.61851196 -13.65947906 26.83077393 -13.65510559 26.01916504 C-13.63847617 23.5332441 -13.60085614 21.04817081 -13.5625 18.5625 C-13.54743271 16.86459514 -13.53374791 15.16667742 -13.52148438 13.46875 C-13.48862466 9.33301281 -13.43695474 5.1978995 -13.375 1.0625 C-8.83926989 0.25434587 -4.61275733 -0.04351658 0 0 Z " fill="#F2D100" transform="translate(282.375,285.9375)"/>
<path d="M0 0 C0.33 0 0.66 0 1 0 C1 3.3 1 6.6 1 10 C2.794375 9.87625 2.794375 9.87625 4.625 9.75 C9.13196864 9.75796284 11.51288035 11.06764939 15 14 C20.93338311 20.73519164 20.2151296 26.01496428 20.25 34.75 C20.270625 36.02617187 20.29125 37.30234375 20.3125 38.6171875 C20.32023437 40.46957031 20.32023437 40.46957031 20.328125 42.359375 C20.3374707 43.48827148 20.34681641 44.61716797 20.35644531 45.78027344 C19.82674065 50.56503034 18.49764221 53.76240693 14.75317383 56.85668945 C11.31325434 58.28518488 8.67080142 58.34047832 4.94921875 58.29296875 C4.29041214 58.28872391 3.63160553 58.28447906 2.95283508 58.28010559 C0.86396115 58.26341196 -1.22392139 58.22578058 -3.3125 58.1875 C-4.73501203 58.17244097 -6.1575393 58.15875469 -7.58007812 58.14648438 C-11.05370351 58.11354003 -14.52675487 58.06182408 -18 58 C-18 57.01 -18 56.02 -18 55 C-18.99 55 -19.98 55 -21 55 C-21 49.72 -21 44.44 -21 39 C-15.06 39 -9.12 39 -3 39 C-3 35.7 -3 32.4 -3 29 C-4.155 29.144375 -5.31 29.28875 -6.5 29.4375 C-11.40436393 29.4375 -13.88756622 27.33163953 -17.30078125 23.9921875 C-21.86772111 18.63784421 -22.35301168 13.70722183 -22 7 C-21.13117188 7.03480469 -20.26234375 7.06960938 -19.3671875 7.10546875 C-10.69860794 7.5039863 -10.69860794 7.5039863 -3 4 C-1.21655822 1.93045153 -1.21655822 1.93045153 0 0 Z " fill="#F1D000" transform="translate(333,279)"/>
<path d="M0 0 C6.6 0 13.2 0 20 0 C20 24.42 20 48.84 20 74 C13.4 74 6.8 74 0 74 C0 49.58 0 25.16 0 0 Z " fill="#F1D100" transform="translate(150,260)"/>
<path d="M0 0 C0.268125 0.556875 0.53625 1.11375 0.8125 1.6875 C1.204375 2.450625 1.59625 3.21375 2 4 C2.4640625 5.28390625 2.4640625 5.28390625 2.9375 6.59375 C5.39034037 9.45539709 6.04300102 9.40891279 9.66796875 9.70703125 C11.50717782 9.76678895 13.34735628 9.80100708 15.1875 9.8125 C16.12787109 9.83763672 17.06824219 9.86277344 18.03710938 9.88867188 C20.35849279 9.94759024 22.67798924 9.9838331 25 10 C25 12.64 25 15.28 25 18 C21.37 18.33 17.74 18.66 14 19 C14.55429687 19.60328125 15.10859375 20.2065625 15.6796875 20.828125 C16.40414062 21.62734375 17.12859375 22.4265625 17.875 23.25 C18.59429687 24.03890625 19.31359375 24.8278125 20.0546875 25.640625 C23.6099464 29.95262575 24.2469642 32.63964677 24.125 38.25 C24.10695313 39.32765625 24.08890625 40.4053125 24.0703125 41.515625 C24.04710937 42.33546875 24.02390625 43.1553125 24 44 C23.34 44 22.68 44 22 44 C21.99613281 42.98292969 21.99613281 42.98292969 21.9921875 41.9453125 C21.69333134 34.75284093 20.19492418 28.29836293 15 23 C12.44622923 22.39034615 12.44622923 22.39034615 10 23 C7.56874852 26.64687722 7.40303435 29.82217609 7 34.0625 C6.31735971 40.47206946 5.41695824 46.70675098 4 53 C3.49796824 55.31205977 2.99812554 57.62459551 2.5 59.9375 C2.24605469 61.11441406 1.99210937 62.29132813 1.73046875 63.50390625 C0.72431669 68.31944688 -0.1592207 73.15315465 -1 78 C-3.29113732 75.8092961 -4.6975667 73.90542812 -6 71 C-6.33 72.65 -6.66 74.3 -7 76 C-9 73 -9 73 -10 71 C-10.66 72.32 -11.32 73.64 -12 75 C-12.33 73.68 -12.66 72.36 -13 71 C-13.66 73.31 -14.32 75.62 -15 78 C-15.33 78 -15.66 78 -16 78 C-16.44733381 76.13207908 -16.85661338 74.2550221 -17.25 72.375 C-17.48203125 71.33085937 -17.7140625 70.28671875 -17.953125 69.2109375 C-18.01490592 64.97894452 -16.42644745 63.41245966 -14 60 C-12.90973938 57.34975354 -12.13721503 54.63526049 -11.375 51.875 C-11.16335205 51.13451416 -10.9517041 50.39402832 -10.73364258 49.63110352 C-9.02690464 43.49069423 -7.81627251 37.32306615 -7 31 C-6.67 31.66 -6.34 32.32 -6 33 C-2.1240607 29.47637226 -2.1240607 29.47637226 -0.90234375 24.61743164 C-0.91394531 23.64153076 -0.92554688 22.66562988 -0.9375 21.66015625 C-0.94523437 20.59732422 -0.95296875 19.53449219 -0.9609375 18.43945312 C-0.98693399 16.19205677 -1.0129755 13.94466093 -1.0390625 11.69726562 C-1.04679687 10.63314453 -1.05453125 9.56902344 -1.0625 8.47265625 C-1.07410156 7.49562744 -1.08570313 6.51859863 -1.09765625 5.51196289 C-1 3 -1 3 0 0 Z " fill="#060606" transform="translate(321,188)"/>
<path d="M0 0 C4.62 0 9.24 0 14 0 C14 0.99 14 1.98 14 3 C14.66 3 15.32 3 16 3 C16 8.28 16 13.56 16 19 C10.06 19 4.12 19 -2 19 C-2.66 20.32 -3.32 21.64 -4 23 C-7.51076421 26.05776238 -10.50091323 27.14157379 -15.125 27.125 C-16.18074219 27.12886719 -16.18074219 27.12886719 -17.2578125 27.1328125 C-19.5441683 27.02207732 -21.74995427 26.80288921 -24.01953125 26.52734375 C-29.85360212 25.85092974 -35.69630076 25.65319509 -41.5625 25.4375 C-42.66658203 25.39431641 -43.77066406 25.35113281 -44.90820312 25.30664062 C-47.60537185 25.20155613 -50.30261703 25.09940587 -53 25 C-52.67 24.01 -52.34 23.02 -52 22 C-51.34 21.67 -50.68 21.34 -50 21 C-50.33 19.35 -50.66 17.7 -51 16 C-54.3 15.01 -57.6 14.02 -61 13 C-61 12.34 -61 11.68 -61 11 C-51.35157613 8.29530942 -38.25530813 8.15734065 -29.25 12.625 C-26.58178838 14.21909514 -24.07095266 15.95023226 -21.52734375 17.734375 C-16.76953927 21.09062095 -16.76953927 21.09062095 -11.1875 22.625 C-7.27215532 21.85728536 -6.41191285 21.15441318 -4 18 C-2.95868941 14.97039915 -2.34915251 11.89309516 -1.75 8.75 C-1.57726562 7.90953125 -1.40453125 7.0690625 -1.2265625 6.203125 C-0.80417879 4.13813796 -0.4002525 2.06939059 0 0 Z " fill="#050504" transform="translate(335,260)"/>
<path d="M0 0 C1.9375 0.125 1.9375 0.125 4 1 C5.25 3.5625 5.25 3.5625 6 6 C8.31 6 10.62 6 13 6 C12.01 6.99 11.02 7.98 10 9 C11.32 9.66 12.64 10.32 14 11 C13.67 11.33 13.34 11.66 13 12 C14.32 12.66 15.64 13.32 17 14 C16.01 14.99 15.02 15.98 14 17 C14.99 17.66 15.98 18.32 17 19 C16.67 19.33 16.34 19.66 16 20 C17.32 20.66 18.64 21.32 20 22 C19.45730469 22.51949219 18.91460937 23.03898437 18.35546875 23.57421875 C16.6190714 26.0315912 16.6190714 26.0315912 17.80078125 29.20703125 C18.29964844 30.39683594 18.79851562 31.58664063 19.3125 32.8125 C21.6157104 38.3559224 23.43880003 43.35803743 21.125 49.21484375 C20.08333333 50.80989583 19.04166667 52.40494792 18 54 C18.969375 53.34 19.93875 52.68 20.9375 52 C25.13878289 49.58211882 29.23665952 49.16568782 34 50 C34.66 50.66 35.32 51.32 36 52 C32.04 52.99 28.08 53.98 24 55 C25.4025 54.95875 26.805 54.9175 28.25 54.875 C31.77920727 54.77119979 33.93753253 55.21590198 37 57 C36.505 57.99 36.505 57.99 36 59 C20.43831476 60.3466843 20.43831476 60.3466843 15.19921875 57.453125 C3.60848152 45.11968034 -0.95392084 21.29280715 -1.1875 4.8125 C-1 1 -1 1 0 0 Z " fill="#F6F6F6" transform="translate(164,210)"/>
<path d="M0 0 C3.3 0 6.6 0 10 0 C10 24.42 10 48.84 10 74 C6.7 74 3.4 74 0 74 C0 49.58 0 25.16 0 0 Z " fill="#E2C403" transform="translate(134,165)"/>
<path d="M0 0 C2.97 0 5.94 0 9 0 C9 24.42 9 48.84 9 74 C6.03 74 3.06 74 0 74 C0 49.58 0 25.16 0 0 Z " fill="#F3D300" transform="translate(361,165)"/>
<path d="M0 0 C2.97 0 5.94 0 9 0 C9 24.42 9 48.84 9 74 C6.03 74 3.06 74 0 74 C0 49.58 0 25.16 0 0 Z " fill="#F3D300" transform="translate(349,165)"/>
<path d="M0 0 C2.97 0 5.94 0 9 0 C9 24.42 9 48.84 9 74 C6.03 74 3.06 74 0 74 C0 49.58 0 25.16 0 0 Z " fill="#EECE01" transform="translate(123,165)"/>
<path d="M0 0 C0.33 0 0.66 0 1 0 C1.33 3.96 1.66 7.92 2 12 C2.33 12 2.66 12 3 12 C3.01458252 12.60473145 3.02916504 13.20946289 3.04418945 13.83251953 C3.11909188 16.59729265 3.21561073 19.36091357 3.3125 22.125 C3.33505859 23.07632812 3.35761719 24.02765625 3.38085938 25.0078125 C3.64962937 32.04469954 4.67980611 36.57189012 9.6875 41.8125 C13.75607973 44.49929794 16.19511742 44.75147159 21 45 C21 48.3 21 51.6 21 55 C15.06 55 9.12 55 3 55 C3 60.28 3 65.56 3 71 C2.67 71 2.34 71 2 71 C1.17569604 66.7467677 0.92260244 62.82686882 1.04296875 58.5 C1.06423828 57.283125 1.08550781 56.06625 1.10742188 54.8125 C1.16081303 52.27056031 1.22592134 49.72883976 1.30273438 47.1875 C1.55549129 38.24591068 1.55549129 38.24591068 -3 31 C-7.62264119 27.112779 -11.15914326 26.40281771 -17 26 C-17 22.7 -17 19.4 -17 16 C-11.39 16 -5.78 16 0 16 C0 10.72 0 5.44 0 0 Z " fill="#1E0F2F" transform="translate(351,263)"/>
<path d="M0 0 C2.97 0 5.94 0 9 0 C9 19.8 9 39.6 9 60 C6.03 60 3.06 60 0 60 C0 40.2 0 20.4 0 0 Z " fill="#EFCF00" transform="translate(373,172)"/>
<path d="M0 0 C2.97 0 5.94 0 9 0 C9 19.8 9 39.6 9 60 C6.03 60 3.06 60 0 60 C0 40.2 0 20.4 0 0 Z " fill="#EECE01" transform="translate(111,172)"/>
<path d="M0 0 C5.94738135 -0.53101619 9.21517769 0.20848067 14.23828125 3.41796875 C18.55197408 7.29168404 19.73268108 12.16320272 20.8671875 17.65234375 C21.02865265 18.38892715 21.1901178 19.12551056 21.35647583 19.88441467 C22.04101952 23.0083898 22.70480403 26.13667169 23.36962891 29.26489258 C25.36183219 38.57662019 27.63842707 47.47662265 31.05126953 56.37719727 C32 59 32 59 32 61 C30.515 60.505 30.515 60.505 29 60 C21.78421334 59.29910352 16.90189019 59.6965384 11 64 C9.14140661 65.60172474 9.14140661 65.60172474 8 67 C8.08308457 64.17512445 8.49069265 62.48883268 10.5546875 60.5078125 C11.78617061 59.52160404 13.03725217 58.55926354 14.30859375 57.625 C17.68526814 54.38089713 18.11402877 50.91831611 18.30078125 46.41015625 C18.31997433 44.62770322 18.32314052 42.84502461 18.3125 41.0625 C18.30903564 40.13115234 18.30557129 39.19980469 18.30200195 38.24023438 C18.15619652 28.9022419 17.63464753 18.81495404 12 11 C9.87636794 9.22492718 9.87636794 9.22492718 7.5 7.8125 C6.7265625 7.32394531 5.953125 6.83539063 5.15625 6.33203125 C4.4446875 5.89246094 3.733125 5.45289063 3 5 C2.01 4.34 1.02 3.68 0 3 C0 2.01 0 1.02 0 0 Z " fill="#0D0D0D" transform="translate(203,198)"/>
<path d="M0 0 C2.97 0 5.94 0 9 0 C9 14.52 9 29.04 9 44 C6.03 44 3.06 44 0 44 C0 29.48 0 14.96 0 0 Z " fill="#EFD000" transform="translate(385,180)"/>
<path d="M0 0 C2.97 0 5.94 0 9 0 C9 14.52 9 29.04 9 44 C6.03 44 3.06 44 0 44 C0 29.48 0 14.96 0 0 Z " fill="#F1D200" transform="translate(99,180)"/>
<path d="M0 0 C3 1 3 1 4.5625 3.0625 C7.8328797 5.66203258 10.03224222 5.49226708 14.1171875 5.33984375 C19.22631881 4.73754778 24.04904145 3.38166285 29 2 C29.495 9.425 29.495 9.425 30 17 C30.99 16.34 31.98 15.68 33 15 C33 18.3 33 21.6 33 25 C38.28 24.67 43.56 24.34 49 24 C49 24.33 49 24.66 49 25 C51.97 25.33 54.94 25.66 58 26 C58 27.32 58 28.64 58 30 C57.01 30 56.02 30 55 30 C55 29.01 55 28.02 55 27 C47.74 27 40.48 27 33 27 C32.67 43.83 32.34 60.66 32 78 C31.67 78 31.34 78 31 78 C30.99413376 77.35155624 30.98826752 76.70311249 30.98222351 76.03501892 C30.91815886 69.26988826 30.83370512 62.50522755 30.73754883 55.74047852 C30.70434871 53.21775519 30.67630158 50.69495846 30.65356445 48.17211914 C30.61992904 44.54020994 30.56760633 40.90897043 30.51171875 37.27734375 C30.50532883 36.15416245 30.4989389 35.03098114 30.49235535 33.87376404 C30.37814482 27.75436319 29.76014775 23.45863649 27 18 C26.70703125 14.69140625 26.70703125 14.69140625 26.8125 11.5625 C26.85310547 9.98662109 26.85310547 9.98662109 26.89453125 8.37890625 C26.92933594 7.59386719 26.96414063 6.80882812 27 6 C25.741875 6.33 24.48375 6.66 23.1875 7 C17.36540083 8.2989177 10.68666759 9.08831516 4.8828125 7.375 C1.96288458 6.79343759 0.26587081 8.45686348 -2.1484375 9.94140625 C-7.76923252 13.15498315 -12.51523144 13 -19 13 C-19 33.46 -19 53.92 -19 75 C-19.33 75 -19.66 75 -20 75 C-20 57.18 -20 39.36 -20 21 C-22.97 21 -25.94 21 -29 21 C-29 20.67 -29 20.34 -29 20 C-26.03 20 -23.06 20 -20 20 C-20.18129815 16.56206661 -20.18129815 16.56206661 -21 13 C-22.93597032 11.48705712 -22.93597032 11.48705712 -25 11 C-25 10.34 -25 9.68 -25 9 C-24.17757812 9.10699219 -23.35515625 9.21398437 -22.5078125 9.32421875 C-13.70611538 10.26943565 -6.51372079 10.0091472 1 5 C0.67 3.35 0.34 1.7 0 0 Z " fill="#2C0E18" transform="translate(234,259)"/>
<path d="M0 0 C8.56355173 7.69778606 12.22361231 19.96947835 14 31 C14 31.66 14 32.32 14 33 C13.34 33 12.68 33 12 33 C12 32.34 12 31.68 12 31 C11.01 31.66 10.02 32.32 9 33 C9.08378906 33.63421875 9.16757812 34.2684375 9.25390625 34.921875 C10.35347548 44.9989398 9.64809181 54.90970898 9 65 C8.67 65 8.34 65 8 65 C8 59.06 8 53.12 8 47 C5.69 47.99 3.38 48.98 1 50 C0.01 49.67 -0.98 49.34 -2 49 C-1.195625 48.401875 -0.39125 47.80375 0.4375 47.1875 C3.22327984 45.19052724 3.22327984 45.19052724 4 42 C1.03 42.495 1.03 42.495 -2 43 C-1.566875 42.58492187 -1.13375 42.16984375 -0.6875 41.7421875 C4.22542683 36.30612494 4.6612806 31.93853332 4.3359375 24.75 C3.57979883 13.50875257 3.57979883 13.50875257 0 3 C0 2.01 0 1.02 0 0 Z " fill="#0A0A0B" transform="translate(307,152)"/>
<path d="M0 0 C3.96 0 7.92 0 12 0 C12 0.99 12 1.98 12 3 C12.66 3 13.32 3 14 3 C14 8.28 14 13.56 14 19 C8.39 19 2.78 19 -3 19 C-2.09202031 12.64414219 -1.06687909 6.33014925 0 0 Z " fill="#EDC900" transform="translate(337,260)"/>
<path d="M0 0 C0.99 0.33 1.98 0.66 3 1 C3 3.31 3 5.62 3 8 C0.03 8 -2.94 8 -6 8 C-6 27.14 -6 46.28 -6 66 C-12.6 66 -19.2 66 -26 66 C-26 65.01 -26 64.02 -26 63 C-20.39 63 -14.78 63 -9 63 C-9 43.86 -9 24.72 -9 5 C-6.03 5 -3.06 5 0 5 C0 3.35 0 1.7 0 0 Z " fill="#DF2F02" transform="translate(211,271)"/>
<path d="M0 0 C0.99 0 1.98 0 3 0 C3 24.42 3 48.84 3 74 C-3.6 74 -10.2 74 -17 74 C-17 73.01 -17 72.02 -17 71 C-11.39 71 -5.78 71 0 71 C0 47.57 0 24.14 0 0 Z " fill="#D72B04" transform="translate(170,263)"/>
<path d="M0 0 C3.70266011 3.34433816 4.80340873 5.41123187 5.17700195 10.33081055 C5.24378978 13.11647498 5.28487608 15.90116732 5.3125 18.6875 C5.34150391 19.64333984 5.37050781 20.59917969 5.40039062 21.58398438 C5.46405045 28.76775071 4.51766139 35.40057977 -0.69116211 40.73046875 C-3.93568169 42.51449136 -6.48460105 42.33830409 -10.171875 42.29296875 C-11.1955014 42.28660149 -11.1955014 42.28660149 -12.23980713 42.28010559 C-14.41028004 42.26336972 -16.57980979 42.22572959 -18.75 42.1875 C-20.22524697 42.17244646 -21.70050855 42.15875922 -23.17578125 42.14648438 C-26.78415844 42.11348377 -30.3919871 42.06173767 -34 42 C-34 41.01 -34 40.02 -34 39 C-32.76697144 38.98598145 -32.76697144 38.98598145 -31.5090332 38.97167969 C-27.77625038 38.91792129 -24.04471319 38.83428169 -20.3125 38.75 C-18.37213867 38.72873047 -18.37213867 38.72873047 -16.39257812 38.70703125 C-14.52182617 38.65869141 -14.52182617 38.65869141 -12.61328125 38.609375 C-11.46641846 38.58842773 -10.31955566 38.56748047 -9.13793945 38.54589844 C-5.36400564 37.88935786 -3.69552811 36.67943993 -1 34 C1.41802195 28.25629021 1.26937816 22.56112437 1.1875 16.4375 C1.18685547 15.51775391 1.18621094 14.59800781 1.18554688 13.65039062 C1.15541677 8.99361599 0.95238972 4.57908975 0 0 Z " fill="#D52D04" transform="translate(391,295)"/>
<path d="M0 0 C2.66183803 2.54610594 3.93484574 3.90738285 4.16113281 7.70214844 C4.20652027 11.384866 4.23529751 15.06702569 4.25 18.75 C4.270625 20.02617187 4.29125 21.30234375 4.3125 22.6171875 C4.32023437 24.46957031 4.32023437 24.46957031 4.328125 26.359375 C4.3374707 27.48827148 4.34681641 28.61716797 4.35644531 29.78027344 C3.82674065 34.56503034 2.49764221 37.76240693 -1.24682617 40.85668945 C-4.68674566 42.28518488 -7.32919858 42.34047832 -11.05078125 42.29296875 C-11.70958786 42.28872391 -12.36839447 42.28447906 -13.04716492 42.28010559 C-15.13603885 42.26341196 -17.22392139 42.22578058 -19.3125 42.1875 C-20.73501203 42.17244097 -22.1575393 42.15875469 -23.58007812 42.14648438 C-27.05370351 42.11354003 -30.52675487 42.06182408 -34 42 C-34 41.01 -34 40.02 -34 39 C-33.17798096 38.99589111 -32.35596191 38.99178223 -31.5090332 38.98754883 C-27.77612958 38.95460757 -24.04485666 38.88395896 -20.3125 38.8125 C-19.01892578 38.80669922 -17.72535156 38.80089844 -16.39257812 38.79492188 C-14.52182617 38.75141602 -14.52182617 38.75141602 -12.61328125 38.70703125 C-11.46641846 38.6913208 -10.31955566 38.67561035 -9.13793945 38.65942383 C-5.07988471 37.80664192 -3.58288606 36.1767474 -1 33 C0.15927528 29.52217417 0.11313066 26.81196743 0.09765625 23.14453125 C0.09553383 22.15207649 0.09553383 22.15207649 0.09336853 21.13957214 C0.08777996 19.03050172 0.07522965 16.92153823 0.0625 14.8125 C0.05748352 13.38086091 0.05292087 11.94922015 0.04882812 10.51757812 C0.0378143 7.01168412 0.02055755 3.5058525 0 0 Z " fill="#DD3302" transform="translate(349,295)"/>
<path d="M0 0 C10.89 0 21.78 0 33 0 C33 0.99 33 1.98 33 3 C33.66 3 34.32 3 35 3 C35 8.28 35 13.56 35 19 C31.04 19 27.08 19 23 19 C23 22.3 23 25.6 23 29 C22.01 29 21.02 29 20 29 C20 24.71 20 20.42 20 16 C23.96 16 27.92 16 32 16 C32 11.05 32 6.1 32 1 C21.77 1 11.54 1 1 1 C1 25.09 1 49.18 1 74 C0.67 74 0.34 74 0 74 C0 49.58 0 25.16 0 0 Z " fill="#C2A20A" transform="translate(111,260)"/>
<path d="M0 0 C0.66 0 1.32 0 2 0 C2 5.28 2 10.56 2 16 C-1.96 16 -5.92 16 -10 16 C-10 25.57 -10 35.14 -10 45 C-16.6 45 -23.2 45 -30 45 C-30 44.01 -30 43.02 -30 42 C-24.39 42 -18.78 42 -13 42 C-13 32.43 -13 22.86 -13 13 C-8.71 13 -4.42 13 0 13 C0 8.71 0 4.42 0 0 Z " fill="#D82B03" transform="translate(144,292)"/>
<path d="M0 0 C1.23310435 0.89040537 2.46126564 1.78765704 3.6875 2.6875 C4.71423828 3.43580078 4.71423828 3.43580078 5.76171875 4.19921875 C6.50035156 4.79347656 7.23898437 5.38773438 8 6 C8.90492188 6.66644531 9.80984375 7.33289063 10.7421875 8.01953125 C14.13271583 12.49526328 13.61964977 16.54264991 13.4375 22 C13.43169922 22.98484375 13.42589844 23.9696875 13.41992188 24.984375 C13.33774159 29.84944776 13.01168224 33.51104748 11 38 C10.67 38 10.34 38 10 38 C9.505 30.575 9.505 30.575 9 23 C8.34 23.99 7.68 24.98 7 26 C6.71253906 24.99195313 6.42507813 23.98390625 6.12890625 22.9453125 C5.41293651 20.4384722 4.69083425 17.93366983 3.96484375 15.4296875 C3.45630859 13.67011719 3.45630859 13.67011719 2.9375 11.875 C2.59589844 10.69679687 2.25429687 9.51859375 1.90234375 8.3046875 C1.14813943 5.54253663 0.51513473 2.81465367 0 0 Z " fill="#0D0D0D" transform="translate(250,204)"/>
<path d="M0 0 C2.625 0.375 2.625 0.375 5 1 C5 1.66 5 2.32 5 3 C4.35125916 3.42698685 3.70251831 3.85397369 3.03411865 4.29389954 C0.77821578 5.83155272 0.77821578 5.83155272 0.48101807 8.41081238 C0.47213562 9.36345474 0.46325317 10.31609711 0.45410156 11.29760742 C0.42452362 12.91894844 0.42452362 12.91894844 0.39434814 14.57304382 C0.39250519 16.32159416 0.39250519 16.32159416 0.390625 18.10546875 C0.37408875 19.29981033 0.35755249 20.49415192 0.34051514 21.72468567 C0.29186497 25.5456752 0.2706255 29.36626626 0.25 33.1875 C0.22185471 35.77541086 0.19192934 38.36330302 0.16015625 40.95117188 C0.08610084 47.30074847 0.03662978 53.65010164 0 60 C-6.27 60 -12.54 60 -19 60 C-19 59.01 -19 58.02 -19 57 C-13.39 57 -7.78 57 -2 57 C-2.01047363 55.34436035 -2.02094727 53.6887207 -2.03173828 51.98291016 C-2.06785067 45.85907135 -2.09086851 39.735242 -2.10986328 33.61132812 C-2.11994089 30.95734069 -2.13360313 28.3033644 -2.15087891 25.64941406 C-2.17504992 21.84176893 -2.18646535 18.03427016 -2.1953125 14.2265625 C-2.20563507 13.03382721 -2.21595764 11.84109192 -2.22659302 10.61221313 C-2.22674408 9.51122284 -2.22689514 8.41023254 -2.22705078 7.27587891 C-2.231492 6.30325104 -2.23593323 5.33062317 -2.24050903 4.32852173 C-2 2 -2 2 0 0 Z " fill="#DF2E02" transform="translate(237,277)"/>
<path d="M0 0 C3 1 3 1 4.796875 3.015625 C7.65352573 5.58863665 9.45711934 5.58509215 13.25 5.75 C14.32765625 5.80671875 15.4053125 5.8634375 16.515625 5.921875 C17.74539062 5.96054687 17.74539062 5.96054687 19 6 C18.67 6.66 18.34 7.32 18 8 C16.25008666 8.02715383 14.50005055 8.04646551 12.75 8.0625 C11.28820312 8.07990234 11.28820312 8.07990234 9.796875 8.09765625 C7 8 7 8 4.84765625 7.3828125 C1.9493064 6.78230873 0.24754393 8.46813256 -2.1484375 9.94140625 C-7.76923252 13.15498315 -12.51523144 13 -19 13 C-19 33.46 -19 53.92 -19 75 C-19.33 75 -19.66 75 -20 75 C-20 57.18 -20 39.36 -20 21 C-22.97 21 -25.94 21 -29 21 C-29 20.67 -29 20.34 -29 20 C-26.03 20 -23.06 20 -20 20 C-20.18129815 16.56206661 -20.18129815 16.56206661 -21 13 C-22.93597032 11.48705712 -22.93597032 11.48705712 -25 11 C-25 10.34 -25 9.68 -25 9 C-24.17757812 9.10699219 -23.35515625 9.21398437 -22.5078125 9.32421875 C-13.70611538 10.26943565 -6.51372079 10.0091472 1 5 C0.67 3.35 0.34 1.7 0 0 Z " fill="#221918" transform="translate(234,259)"/>
<path d="M0 0 C2 2 2 2 2.24050903 4.25259399 C2.2338472 5.65824112 2.2338472 5.65824112 2.22705078 7.09228516 C2.22689972 8.15323395 2.22674866 9.21418274 2.22659302 10.30728149 C2.21627045 11.45626923 2.20594788 12.60525696 2.1953125 13.7890625 C2.1924826 14.96262299 2.18965271 16.13618347 2.18673706 17.3453064 C2.17551355 21.10530662 2.15040492 24.86507139 2.125 28.625 C2.11497301 31.1692674 2.10584668 33.71353852 2.09765625 36.2578125 C2.0755671 42.50529949 2.04102236 48.75260979 2 55 C-4.6 55 -11.2 55 -18 55 C-18 54.01 -18 53.02 -18 52 C-12.06 52 -6.12 52 0 52 C0 34.84 0 17.68 0 0 Z " fill="#DE2C02" transform="translate(263,282)"/>
<path d="M0 0 C0 0.99 0 1.98 0 3 C-3 5.1875 -3 5.1875 -6 7 C-5.34 7.66 -4.68 8.32 -4 9 C-10.78592665 12.97224974 -18.33649773 12.71353044 -26 12 C-26.66 11.34 -27.32 10.68 -28 10 C-23.545 9.505 -23.545 9.505 -19 9 C-19.825 8.525625 -20.65 8.05125 -21.5 7.5625 C-22.325 7.046875 -23.15 6.53125 -24 6 C-24 5.67 -24 5.34 -24 5 C-22.40671875 4.83564453 -22.40671875 4.83564453 -20.78125 4.66796875 C-13.4568956 3.86318973 -6.7683195 3.10214644 0 0 Z " fill="#111111" transform="translate(306,241)"/>
<path d="M0 0 C0.99 0 1.98 0 3 0 C3 5.28 3 10.56 3 16 C-1.34269816 16.09196302 -5.68200526 16.1715471 -10.02490234 16.21972656 C-11.5012559 16.23981301 -12.97753019 16.26708801 -14.45361328 16.30175781 C-16.57864962 16.35041184 -18.70263234 16.37299673 -20.828125 16.390625 C-22.1059082 16.41157227 -23.38369141 16.43251953 -24.70019531 16.45410156 C-28 16 -28 16 -32 12 C-16.16 12.495 -16.16 12.495 0 13 C0 8.71 0 4.42 0 0 Z " fill="#DA2C03" transform="translate(307,321)"/>
<path d="M0 0 C-2.15266842 2.15266842 -3.84773744 2.93474462 -6.625 4.125 C-7.44226563 4.47820312 -8.25953125 4.83140625 -9.1015625 5.1953125 C-9.72804688 5.46085938 -10.35453125 5.72640625 -11 6 C-8.69 6 -6.38 6 -4 6 C-6.38762181 8.38762181 -8.69633285 9.37302257 -11.75 10.8125 C-16.45145744 13.11237161 -20.20532212 15.41613756 -24 19 C-23.46209337 12.27616709 -21.51887549 8.32511584 -16.5625 3.75 C-10.99950695 -0.0491172 -6.56738049 -0.25754433 0 0 Z " fill="#191919" transform="translate(291,146)"/>
<path d="M0 0 C0.99 0 1.98 0 3 0 C3 5.28 3 10.56 3 16 C-2.94 16 -8.88 16 -15 16 C-15 19.3 -15 22.6 -15 26 C-15.99 26 -16.98 26 -18 26 C-18 21.71 -18 17.42 -18 13 C-12.06 13 -6.12 13 0 13 C0 8.71 0 4.42 0 0 Z " fill="#DA2F03" transform="translate(307,292)"/>
<path d="M0 0 C0.99 0 1.98 0 3 0 C3 5.28 3 10.56 3 16 C-2.94 16 -8.88 16 -15 16 C-15 19.3 -15 22.6 -15 26 C-15.99 26 -16.98 26 -18 26 C-18 21.71 -18 17.42 -18 13 C-12.06 13 -6.12 13 0 13 C0 8.71 0 4.42 0 0 Z " fill="#DA3703" transform="translate(391,263)"/>
<path d="M0 0 C6.27 0 12.54 0 19 0 C19 2.64 19 5.28 19 8 C7.58866942 8.91426091 7.58866942 8.91426091 3.80078125 6.734375 C2.1875 5.125 2.1875 5.125 0 2 C0 1.34 0 0.68 0 0 Z " fill="#F0D000" transform="translate(327,198)"/>
<path d="M0 0 C3 1.875 3 1.875 5 4 C5 4.66 5 5.32 5 6 C4.29875 6.06316406 3.5975 6.12632812 2.875 6.19140625 C-4.6865851 7.16742607 -8.81586049 9.44450379 -14 15 C-14.33 14.34 -14.66 13.68 -15 13 C-13.02 10.03 -13.02 10.03 -11 7 C-12.65 7.66 -14.3 8.32 -16 9 C-13.13962413 1.27698516 -7.58851735 -1.08407391 0 0 Z " fill="#0F0F0F" transform="translate(233,157)"/>
<path d="M0 0 C7.57620197 -0.27057864 14.71142276 0.23592633 21 5 C21.33 5.99 21.66 6.98 22 8 C14.10634166 8.43673929 8.33709542 7.71068464 1.5 3.4375 C1.005 2.963125 0.51 2.48875 0 2 C0 1.34 0 0.68 0 0 Z " fill="#ECECEC" transform="translate(237,143)"/>
<path d="M0 0 C0.66 0 1.32 0 2 0 C2 5.28 2 10.56 2 16 C-1.96 16 -5.92 16 -10 16 C-10 19.3 -10 22.6 -10 26 C-10.99 26 -11.98 26 -13 26 C-13 21.71 -13 17.42 -13 13 C-8.71 13 -4.42 13 0 13 C0 8.71 0 4.42 0 0 Z " fill="#DD3402" transform="translate(144,263)"/>
<path d="M0 0 C3.96 0 7.92 0 12 0 C12.33 2.64 12.66 5.28 13 8 C8.71 8 4.42 8 0 8 C0 5.36 0 2.72 0 0 Z " fill="#E7C801" transform="translate(146,198)"/>
<path d="M0 0 C4.29 0 8.58 0 13 0 C13 0.33 13 0.66 13 1 C9.04 1 5.08 1 1 1 C1.495 16.345 1.495 16.345 2 32 C-4.27 32 -10.54 32 -17 32 C-17 31.01 -17 30.02 -17 29 C-11.39 29 -5.78 29 0 29 C0 19.43 0 9.86 0 0 Z " fill="#E03602" transform="translate(131,305)"/>
<path d="M0 0 C3.96 0 7.92 0 12 0 C12 2.64 12 5.28 12 8 C8.04 8 4.08 8 0 8 C0 5.36 0 2.72 0 0 Z " fill="#ECCD01" transform="translate(396,198)"/>
<path d="M0 0 C3.96 0 7.92 0 12 0 C12 2.64 12 5.28 12 8 C8.04 8 4.08 8 0 8 C0 5.36 0 2.72 0 0 Z " fill="#E9CA02" transform="translate(84,198)"/>
<path d="M0 0 C0.66 0 1.32 0 2 0 C2 5.28 2 10.56 2 16 C-3.61 16 -9.22 16 -15 16 C-14.67 14.68 -14.34 13.36 -14 12 C-7.07 12.495 -7.07 12.495 0 13 C0 8.71 0 4.42 0 0 Z " fill="#DD3402" transform="translate(349,263)"/>
<path d="M0 0 C0.78503906 0.48726562 0.78503906 0.48726562 1.5859375 0.984375 C9.40781423 4.2751322 20.01495266 2.06065738 28 0 C27.88601335 1.62580966 27.75844341 3.25067157 27.625 4.875 C27.55539062 5.77992188 27.48578125 6.68484375 27.4140625 7.6171875 C27 10 27 10 25 12 C25 8.7 25 5.4 25 2 C24.19304687 2.32742188 23.38609375 2.65484375 22.5546875 2.9921875 C18.28041953 4.20401292 14.53391372 4.22214556 10.125 4.125 C8.949375 4.11146484 8.949375 4.11146484 7.75 4.09765625 C5.83319945 4.07428063 3.91655809 4.03841653 2 4 C1.34 2.68 0.68 1.36 0 0 Z " fill="#434343" transform="translate(275,254)"/>
<path d="M0 0 C1.77388086 1.09926403 3.54399684 2.20460502 5.3125 3.3125 C6.29863281 3.92738281 7.28476563 4.54226562 8.30078125 5.17578125 C10.50172035 6.66324661 12.23328988 8.0403386 14 10 C13.01 10.33 12.02 10.66 11 11 C11.99 11.99 12.98 12.98 14 14 C7.80950116 12.79209779 4.44774584 9.03389889 1 4 C0.30078125 1.7421875 0.30078125 1.7421875 0 0 Z " fill="#181818" transform="translate(171,196)"/>
<path d="M0 0 C0.99 0.33 1.98 0.66 3 1 C4.47965926 1.14573058 5.96403843 1.24663268 7.44921875 1.31640625 C8.29677734 1.35830078 9.14433594 1.40019531 10.01757812 1.44335938 C10.89865234 1.48267578 11.77972656 1.52199219 12.6875 1.5625 C13.58017578 1.60568359 14.47285156 1.64886719 15.39257812 1.69335938 C17.59490108 1.79935353 19.79733473 1.90142051 22 2 C21.67 2.66 21.34 3.32 21 4 C14.8558923 5.6874662 7.69992997 6.16467567 1.8125 3.625 C1.214375 3.08875 0.61625 2.5525 0 2 C0 1.34 0 0.68 0 0 Z " fill="#34301B" transform="translate(179,267)"/>
<path d="M0 0 C3.15859982 2.59260794 4.05680541 5.44581428 5.375 9.25 C7.32938844 14.56664942 9.43567671 18.62097425 13 23 C12.01 23 11.02 23 10 23 C4.61795128 17.18738738 0 7.99318789 0 0 Z " fill="#0D0D0F" transform="translate(167,244)"/>
<path d="M0 0 C0.66 0.33 1.32 0.66 2 1 C1.20425076 15.68020144 1.20425076 15.68020144 -2 21 C-4.10546875 21.7421875 -4.10546875 21.7421875 -6 22 C-5.53980469 21.00871094 -5.07960938 20.01742188 -4.60546875 18.99609375 C-2.9316283 15.09046604 -2.06108158 11.23083131 -1.3125 7.0625 C-1.18294922 6.37865234 -1.05339844 5.69480469 -0.91992188 4.99023438 C-0.60610402 3.32816202 -0.30200834 1.66425873 0 0 Z " fill="#252313" transform="translate(335,260)"/>
<path d="M0 0 C0 4.29 0 8.58 0 13 C-0.66 13 -1.32 13 -2 13 C-2 9.7 -2 6.4 -2 3 C-3.27875 3.20625 -4.5575 3.4125 -5.875 3.625 C-8.0546875 3.9765625 -8.0546875 3.9765625 -10 4 C-10.66 3.34 -11.32 2.68 -12 2 C-10.37787941 1.47026689 -8.75218416 0.95146893 -7.125 0.4375 C-6.22007812 0.14746094 -5.31515625 -0.14257812 -4.3828125 -0.44140625 C-2 -1 -2 -1 0 0 Z " fill="#1C1513" transform="translate(263,262)"/>
<path d="M0 0 C1.58025005 0.21192095 3.16398461 0.39923371 4.75 0.5625 C5.54921875 0.64628906 6.3484375 0.73007812 7.171875 0.81640625 C8.07679688 0.90728516 8.07679688 0.90728516 9 1 C9 2.32 9 3.64 9 5 C8.01 5 7.02 5 6 5 C6 4.01 6 3.02 6 2 C5.05898438 2.01160156 4.11796875 2.02320313 3.1484375 2.03515625 C1.90320313 2.04417969 0.65796875 2.05320312 -0.625 2.0625 C-1.85476563 2.07410156 -3.08453125 2.08570313 -4.3515625 2.09765625 C-7.67723791 2.00863924 -10.74047588 1.63686087 -14 1 C-14 0.67 -14 0.34 -14 0 C-12.41773035 -0.19627391 -10.83410729 -0.38165538 -9.25 -0.5625 C-8.36828125 -0.66691406 -7.4865625 -0.77132813 -6.578125 -0.87890625 C-4.06549583 -0.99692368 -2.39337785 -0.68382224 0 0 Z " fill="#5E311A" transform="translate(283,284)"/>
<path d="M0 0 C0.7940625 -0.01417969 1.588125 -0.02835937 2.40625 -0.04296875 C4.5 0.1875 4.5 0.1875 6.5 2.1875 C0.89 3.1775 -4.72 4.1675 -10.5 5.1875 C-5.35597381 0.04347381 -5.35597381 0.04347381 0 0 Z " fill="#2A2A2A" transform="translate(226.5,260.8125)"/>
<path d="M0 0 C0.33 0 0.66 0 1 0 C2.2982126 5.76081841 3.25706972 11.08739655 3 17 C1 16 1 16 0.33203125 14.1796875 C-0.82430263 9.05008607 -1.09605798 5.15147249 0 0 Z " fill="#141417" transform="translate(164,225)"/>
<path d="M0 0 C0.66 0.33 1.32 0.66 2 1 C-1.08632611 4.2626876 -3.93483504 7.02235218 -8 9 C-8.66 8.67 -9.32 8.34 -10 8 C-8.71064081 6.85157077 -7.41843421 5.70633773 -6.125 4.5625 C-5.04605469 3.60537109 -5.04605469 3.60537109 -3.9453125 2.62890625 C-2 1 -2 1 0 0 Z " fill="#202020" transform="translate(278,161)"/>
<path d="M0 0 C3.96 0.33 7.92 0.66 12 1 C12 1.99 12 2.98 12 4 C6.140625 4.390625 6.140625 4.390625 4 4 C2.68 2.68 1.36 1.36 0 0 Z " fill="#D33005" transform="translate(360,304)"/>
<path d="M0 0 C3.63 0 7.26 0 11 0 C11 0.99 11 1.98 11 3 C5.04296875 3.29296875 5.04296875 3.29296875 3 3 C2.01 2.01 1.02 1.02 0 0 Z " fill="#D52F04" transform="translate(319,305)"/>
<path d="M0 0 C0.99 0 1.98 0 3 0 C2.88601335 1.62580966 2.75844341 3.25067157 2.625 4.875 C2.52058594 6.23238281 2.52058594 6.23238281 2.4140625 7.6171875 C2 10 2 10 0 12 C-0.19401633 10.18818595 -0.38004375 8.37551468 -0.5625 6.5625 C-0.66691406 5.55316406 -0.77132813 4.54382813 -0.87890625 3.50390625 C-0.91886719 2.67761719 -0.95882813 1.85132813 -1 1 C-0.67 0.67 -0.34 0.34 0 0 Z " fill="#2B2B2B" transform="translate(300,254)"/>
<path d="M0 0 C0.33 0.66 0.66 1.32 1 2 C-2.80180386 4.68362626 -5.34379204 5.51735644 -10 5 C-10.66 4.34 -11.32 3.68 -12 3 C-8.04 2.01 -4.08 1.02 0 0 Z " fill="#303030" transform="translate(254,256)"/>
<path d="M0 0 C0.33 0 0.66 0 1 0 C1 3.3 1 6.6 1 10 C0.01 10 -0.98 10 -2 10 C-2.25 3.375 -2.25 3.375 0 0 Z " fill="#DD3202" transform="translate(333,279)"/>
<path d="M0 0 C0.95465783 2.16967689 1.14401212 3.56328793 0.3984375 5.82421875 C-0.35870385 7.5684743 -1.17609198 9.28627131 -2 11 C-3.46761039 7.18421299 -2.4801051 4.70026276 -1 1 C-0.67 0.67 -0.34 0.34 0 0 Z " fill="#0A0A0E" transform="translate(342,236)"/>
<path d="M0 0 C2.48862878 3.23521742 4.75421558 6.59260295 7 10 C6.01 10 5.02 10 4 10 C1.40311527 7.40311527 0.07941399 5.89340735 -0.25 2.1875 C-0.1675 1.465625 -0.085 0.74375 0 0 Z " fill="#1E1D17" transform="translate(173,257)"/>
<path d="M0 0 C1.45792884 -0.05399736 2.91642712 -0.09279177 4.375 -0.125 C5.18710938 -0.14820313 5.99921875 -0.17140625 6.8359375 -0.1953125 C9 0 9 0 11 2 C6.545 2.495 6.545 2.495 2 3 C2 2.34 2 1.68 2 1 C1.34 0.67 0.68 0.34 0 0 Z " fill="#D1D1D1" transform="translate(189,260)"/>
<path d="M0 0 C0.33 0 0.66 0 1 0 C0.67 2.31 0.34 4.62 0 7 C-1.32 7.33 -2.64 7.66 -4 8 C-2.68 5.36 -1.36 2.72 0 0 Z " fill="#1A100D" transform="translate(333,274)"/>
<path d="M0 0 C1.98 0 3.96 0 6 0 C6 0.99 6 1.98 6 3 C4.02 3 2.04 3 0 3 C0 2.01 0 1.02 0 0 Z " fill="#DA3903" transform="translate(176,276)"/>
<path d="M0 0 C3.68802044 1.22934015 4.72356973 2.93859378 7 6 C5.35 6.33 3.7 6.66 2 7 C1.34 4.69 0.68 2.38 0 0 Z " fill="#262522" transform="translate(234,259)"/>
<path d="M0 0 C0 0.33 0 0.66 0 1 C-6.0546875 1.9765625 -6.0546875 1.9765625 -8 2 C-8.66 1.34 -9.32 0.68 -10 0 C-6.42355152 -1.2380014 -3.66305234 -0.74926071 0 0 Z " fill="#302C1E" transform="translate(261,264)"/>
<path d="M0 0 C2.46800047 1.15173355 4.04783565 2.04783565 6 4 C5.67 4.99 5.34 5.98 5 7 C3.29115995 5.37660195 1.62553283 3.70680947 0 2 C0 1.34 0 0.68 0 0 Z " fill="#1C1C1C" transform="translate(301,147)"/>
</svg>
